<svg width="30" height="21" viewBox="0 0 30 21" fill="none" xmlns="http://www.w3.org/2000/svg">
<g clip-path="url(#clip0_0_632)">
<path d="M25.7915 0.55625H3.31009C1.97727 0.55625 0.901367 1.62825 0.901367 2.95625V17.3563C0.901367 18.6842 1.97727 19.7563 3.31009 19.7563H25.7915C27.1244 19.7563 28.2003 18.6842 28.2003 17.3563V2.95625C28.2003 1.62825 27.1244 0.55625 25.7915 0.55625Z" fill="url(#paint0_radial_0_632)"/>
<path d="M26.1931 0.95625C27.0763 0.95625 27.7989 1.67625 27.7989 2.55625V17.7563C27.7989 18.6362 27.0763 19.3563 26.1931 19.3563H2.90873C2.02553 19.3563 1.30291 18.6362 1.30291 17.7563V2.55625C1.30291 1.67625 2.02553 0.95625 2.90873 0.95625H26.1931ZM26.1931 0.15625H2.90873C1.5759 0.15625 0.5 1.22825 0.5 2.55625V17.7563C0.5 19.0842 1.5759 20.1562 2.90873 20.1562H26.1931C27.5259 20.1562 28.6018 19.0842 28.6018 17.7563V2.55625C28.6018 1.22825 27.5259 0.15625 26.1931 0.15625Z" fill="#E7E7E7"/>
<path d="M6.07227 10.4363H7.45327L6.76277 8.75625L6.07227 10.4363Z" fill="white"/>
<path d="M16.8875 8.91625V9.68425H19.1195V10.5483H16.8875V11.3963H19.3845L20.5407 10.1403L19.4407 8.91625H16.8875Z" fill="white"/>
<path d="M25.7275 7.19625H22.0662L21.2312 8.10025L20.4524 7.19625H15.7553H15.1772H12.889L12.2225 8.71625L11.5401 7.19625H8.41675V7.90025L8.0715 7.19625H5.42993L2.86865 13.1003H5.92774L6.32116 12.1563H7.1883L7.5737 13.1003H10.978V12.3883L11.2831 13.1163H13.0495L13.3546 12.3883V13.1163H15.1371H20.3319L21.191 12.1963L22.01 13.1163H25.607L22.9574 10.1803L25.7275 7.19625ZM15.1532 12.2603H14.1174V8.94025L12.6481 12.2603H11.7408L10.2715 8.94025V12.2603H8.208L7.8226 11.3163H5.70292L5.3095 12.2603H4.20148L6.01606 8.02825H7.52553L9.25178 12.0363V8.02825H10.9058L12.2386 10.9003L13.459 8.02825H15.1532V12.2603ZM23.7684 12.2763H22.4516L21.1991 10.8763L19.9064 12.2763H15.8838V8.03625H19.9706L21.2232 9.42825L22.5158 8.03625H23.8487L21.8735 10.1563L23.7684 12.2763Z" fill="white"/>
</g>
<defs>
<radialGradient id="paint0_radial_0_632" cx="0" cy="0" r="1" gradientUnits="userSpaceOnUse" gradientTransform="translate(319.578 50.6754) scale(2618.71 2618.71)">
<stop stop-color="#9DD5F6"/>
<stop offset="0.0711" stop-color="#98D3F5"/>
<stop offset="0.1575" stop-color="#89CEF3"/>
<stop offset="0.2516" stop-color="#70C6EF"/>
<stop offset="0.3514" stop-color="#4EBBEA"/>
<stop offset="0.4546" stop-color="#23ADE3"/>
<stop offset="0.5" stop-color="#0DA6E0"/>
<stop offset="1" stop-color="#2E77BC"/>
</radialGradient>
<clipPath id="clip0_0_632">
<rect width="29" height="20" fill="white" transform="translate(0.5 0.15625)"/>
</clipPath>
</defs>
</svg>
