<svg width="28" height="21" viewBox="0 0 28 21" fill="none" xmlns="http://www.w3.org/2000/svg">
<g clip-path="url(#clip0_0_649)">
<path d="M0.639893 0.956249H27.2799V19.3562H0.639893V0.956249Z" fill="white"/>
<path d="M5.78344 13.836C5.78344 13.511 5.6144 13.5323 5.45232 13.5288V13.4349C5.5928 13.4419 5.7368 13.4419 5.87752 13.4419C6.0288 13.4419 6.23432 13.4349 6.50096 13.4349C7.43392 13.4349 7.942 14.0599 7.942 14.6999C7.942 15.0579 7.7332 15.9575 6.4576 15.9575C6.27392 15.9575 6.1044 15.9505 5.9352 15.9505C5.77304 15.9505 5.6144 15.9541 5.45232 15.9576V15.8638C5.66832 15.8419 5.77312 15.8347 5.78336 15.5889V13.8361L5.78344 13.836ZM6.13664 15.5312C6.13664 15.8095 6.33504 15.842 6.51144 15.842C7.29 15.842 7.5456 15.2528 7.5456 14.7143C7.5456 14.0387 7.11312 13.5507 6.41784 13.5507C6.26984 13.5507 6.20184 13.5614 6.13664 13.5652V15.5312ZM8.06848 15.8638H8.13672C8.23752 15.8638 8.30968 15.8638 8.30968 15.7443V14.765C8.30968 14.6061 8.25568 14.584 8.12232 14.5122V14.4543C8.2916 14.4032 8.4936 14.335 8.50776 14.3242C8.5332 14.3097 8.55464 14.3058 8.57272 14.3058C8.59056 14.3058 8.59808 14.3277 8.59808 14.3567V15.7443C8.59808 15.8638 8.67728 15.8638 8.77816 15.8638H8.83936V15.9578C8.71672 15.9578 8.59056 15.9506 8.46112 15.9506C8.33144 15.9506 8.2016 15.9541 8.06848 15.9578V15.8638ZM8.45392 13.7494C8.36008 13.7494 8.27744 13.6627 8.27744 13.5687C8.27744 13.4783 8.36392 13.3949 8.45392 13.3949C8.54728 13.3949 8.63056 13.4711 8.63056 13.5687C8.63056 13.6663 8.55096 13.7494 8.45392 13.7494ZM9.18168 14.7865C9.18168 14.6529 9.14184 14.6169 8.97288 14.5482V14.4796C9.12768 14.4291 9.27528 14.382 9.44832 14.3059C9.45904 14.3059 9.4696 14.3133 9.4696 14.342V14.577C9.67536 14.429 9.852 14.3058 10.0937 14.3058C10.3996 14.3058 10.5077 14.53 10.5077 14.8119V15.7443C10.5077 15.8638 10.5869 15.8638 10.6879 15.8638H10.7528V15.9578C10.6264 15.9578 10.5003 15.9506 10.3709 15.9506C10.241 15.9506 10.1112 15.9541 9.98168 15.9578V15.8638H10.0463C10.1475 15.8638 10.2191 15.8638 10.2191 15.7443V14.8084C10.2191 14.6022 10.0937 14.5011 9.88792 14.5011C9.7728 14.5011 9.58896 14.5951 9.4696 14.6747V15.7442C9.4696 15.8638 9.54928 15.8638 9.65032 15.8638H9.71504V15.9578C9.58896 15.9578 9.46272 15.9506 9.33296 15.9506C9.20336 15.9506 9.07344 15.9541 8.94384 15.9578V15.8638H9.00888C9.10968 15.8638 9.18168 15.8638 9.18168 15.7442V14.7865ZM11.0268 14.9602C11.0193 14.9928 11.0193 15.0469 11.0268 15.1699C11.048 15.5131 11.2684 15.795 11.5562 15.795C11.7546 15.795 11.9098 15.6866 12.043 15.5529L12.0932 15.6037C11.9274 15.824 11.722 16.0119 11.4268 16.0119C10.8537 16.0119 10.7384 15.4551 10.7384 15.2241C10.7384 14.5156 11.2139 14.3058 11.466 14.3058C11.758 14.3058 12.0718 14.4901 12.0751 14.8732C12.0751 14.8951 12.0751 14.9166 12.0718 14.9385L12.0391 14.9602H11.0268ZM11.6647 14.8445C11.7546 14.8445 11.7652 14.7974 11.7652 14.7542C11.7652 14.5698 11.6535 14.4216 11.4516 14.4216C11.2321 14.4216 11.0807 14.584 11.0375 14.8445H11.6647ZM12.1581 15.8638H12.2554C12.356 15.8638 12.4281 15.8638 12.4281 15.7443V14.7288C12.4281 14.6168 12.295 14.595 12.2408 14.5662V14.5122C12.5038 14.3999 12.6481 14.3058 12.6808 14.3058C12.7022 14.3058 12.7128 14.3168 12.7128 14.3531V14.6782H12.7204C12.8103 14.5374 12.9619 14.3058 13.1814 14.3058C13.2716 14.3058 13.3868 14.3672 13.3868 14.4974C13.3868 14.595 13.3185 14.6821 13.2177 14.6821C13.1055 14.6821 13.1055 14.595 12.9796 14.595C12.9182 14.595 12.7166 14.6782 12.7166 14.8951V15.7443C12.7166 15.8638 12.7886 15.8638 12.8896 15.8638H13.0912V15.9578C12.893 15.9541 12.7422 15.9506 12.587 15.9506C12.4393 15.9506 12.2878 15.9541 12.1582 15.9578L12.1581 15.8638ZM13.5454 15.4551C13.5924 15.6938 13.7363 15.8963 13.9995 15.8963C14.2117 15.8963 14.291 15.7662 14.291 15.6397C14.291 15.2131 13.5058 15.3505 13.5058 14.7686C13.5058 14.5662 13.6681 14.3058 14.0642 14.3058C14.1794 14.3058 14.3342 14.3387 14.4747 14.411L14.5002 14.7793H14.4172C14.3812 14.5518 14.2553 14.4217 14.0244 14.4217C13.8803 14.4217 13.7435 14.5049 13.7435 14.6601C13.7435 15.0833 14.5794 14.9529 14.5794 15.5203C14.5794 15.7587 14.3884 16.0119 13.9595 16.0119C13.8154 16.0119 13.6462 15.9613 13.5202 15.8892L13.4804 15.4734L13.5454 15.4551ZM17.833 14.0891H17.7432C17.6746 13.6664 17.3756 13.4963 16.9722 13.4963C16.5575 13.4963 15.9558 13.7745 15.9558 14.6419C15.9558 15.3724 16.475 15.8963 17.0297 15.8963C17.3863 15.8963 17.682 15.6506 17.7541 15.271L17.8367 15.2925L17.7541 15.8202C17.6027 15.9143 17.1955 16.0119 16.9574 16.0119C16.1146 16.0119 15.5814 15.4661 15.5814 14.6529C15.5814 13.9119 16.2406 13.3805 16.9469 13.3805C17.2386 13.3805 17.5197 13.4748 17.7971 13.5725L17.833 14.0891ZM17.963 15.8638H18.0313C18.1323 15.8638 18.2046 15.8638 18.2046 15.7443V13.7315C18.2046 13.4963 18.1506 13.4891 18.0134 13.4494V13.3916C18.1576 13.3447 18.309 13.2796 18.3846 13.2361C18.4238 13.2145 18.453 13.1962 18.4637 13.1962C18.4857 13.1962 18.4929 13.2181 18.4929 13.2471V15.7443C18.4929 15.8638 18.572 15.8638 18.673 15.8638H18.7338V15.9578C18.6118 15.9578 18.4857 15.9506 18.3558 15.9506C18.2262 15.9506 18.0966 15.9541 17.963 15.9578V15.8638ZM20.2766 15.7586C20.2766 15.824 20.3161 15.8275 20.3772 15.8275C20.4206 15.8275 20.4745 15.824 20.5214 15.824V15.9C20.3664 15.9144 20.0709 15.9904 20.0024 16.0119L19.9843 16.001V15.7085C19.7683 15.8854 19.6024 16.0119 19.3464 16.0119C19.1518 16.0119 18.9501 15.8854 18.9501 15.5821V14.6565C18.9501 14.5627 18.9357 14.4722 18.7343 14.4543V14.3855C18.8642 14.3819 19.1518 14.3603 19.1989 14.3603C19.2389 14.3603 19.2389 14.3855 19.2389 14.465V15.3972C19.2389 15.5058 19.2389 15.8166 19.5521 15.8166C19.6745 15.8166 19.8366 15.7226 19.9878 15.5966V14.6238C19.9878 14.5518 19.815 14.5122 19.6856 14.4758V14.4108C20.0094 14.3891 20.2116 14.3603 20.2474 14.3603C20.2766 14.3603 20.2766 14.3855 20.2766 14.4255V15.7586ZM20.9936 14.5662C21.1376 14.4433 21.332 14.3058 21.5304 14.3058C21.9486 14.3058 22.2005 14.6713 22.2005 15.0649C22.2005 15.5383 21.8547 16.0119 21.3391 16.0119C21.0726 16.0119 20.9322 15.9251 20.8383 15.8855L20.7305 15.9683L20.655 15.9288C20.687 15.7156 20.7054 15.5058 20.7054 15.2855V13.7315C20.7054 13.4963 20.651 13.4891 20.5142 13.4494V13.3916C20.6587 13.3447 20.8096 13.2796 20.8854 13.2361C20.925 13.2145 20.9537 13.1962 20.9649 13.1962C20.9863 13.1962 20.9935 13.2181 20.9935 13.2471L20.9936 14.5662ZM20.9936 15.5491C20.9936 15.6866 21.1231 15.9181 21.3646 15.9181C21.7502 15.9181 21.9122 15.5383 21.9122 15.2166C21.9122 14.8263 21.617 14.5011 21.3359 14.5011C21.2022 14.5011 21.0908 14.588 20.9935 14.6713L20.9936 15.5491ZM5.44824 18.0591H5.47584C5.54624 18.0591 5.62072 18.0494 5.62072 17.947V16.9168C5.62072 16.8143 5.54624 16.8046 5.47584 16.8046H5.44824V16.7455C5.5248 16.7455 5.6424 16.7534 5.7388 16.7534C5.83664 16.7534 5.95416 16.7455 6.04632 16.7455V16.8046H6.01872C5.9484 16.8046 5.87376 16.8143 5.87376 16.9168V17.947C5.87376 18.0494 5.9484 18.0591 6.01872 18.0591H6.04632V18.1183C5.95224 18.1183 5.83432 18.1106 5.73656 18.1106C5.64048 18.1106 5.5248 18.1183 5.44824 18.1183V18.0591Z" fill="#211E1F"/>
<path d="M6.04642 18.1267C5.9517 18.1267 5.83426 18.1187 5.73658 18.1187C5.64074 18.1187 5.52546 18.1267 5.44834 18.1267H5.43994V18.0506H5.47586C5.5469 18.049 5.61162 18.0432 5.61234 17.947V16.9168C5.61162 16.8207 5.5469 16.8142 5.47586 16.8129H5.43994V16.7368H5.44834C5.52546 16.7368 5.6429 16.7446 5.73874 16.7446C5.83634 16.7446 5.9537 16.7368 6.04642 16.7368H6.05522V16.8129H6.01898C5.94786 16.8142 5.88274 16.8207 5.88234 16.9168V17.947C5.88274 18.0432 5.94786 18.0489 6.01898 18.0506H6.05514V18.1266H6.04642V18.1267ZM6.03802 18.1099V18.0679H6.01898C5.94898 18.0679 5.86562 18.0557 5.86522 17.947V16.9168C5.86562 16.8081 5.94898 16.7958 6.01898 16.7958H6.03802V16.7541C5.94746 16.7541 5.83394 16.7618 5.73882 16.7618C5.64562 16.7618 5.5329 16.7547 5.45706 16.7541V16.7958H5.47578C5.5457 16.7958 5.62938 16.8081 5.62938 16.9168V17.947C5.62938 18.0558 5.5457 18.0679 5.47578 18.0679H5.45706V18.1099C5.5329 18.1091 5.6437 18.1019 5.73658 18.1019C5.83202 18.1019 5.94554 18.1093 6.03802 18.1099ZM7.39338 17.7306L7.39738 17.7268V16.9894C7.39738 16.828 7.28538 16.8047 7.22674 16.8047H7.18346V16.7455C7.27578 16.7455 7.36586 16.7533 7.45794 16.7533C7.53826 16.7533 7.61906 16.7455 7.6993 16.7455V16.8046H7.66994C7.58738 16.8046 7.49522 16.8203 7.49522 17.0542V17.9492C7.49522 18.018 7.49722 18.0867 7.5069 18.1476H7.43226L6.42274 17.0188V17.8291C6.42274 18.0002 6.45578 18.059 6.60698 18.059H6.64018V18.1183C6.55602 18.1183 6.47186 18.1106 6.38738 18.1106C6.29938 18.1106 6.20914 18.1183 6.12082 18.1183V18.059H6.14826C6.28354 18.059 6.32458 17.9668 6.32458 17.8096V16.9813C6.32458 16.8713 6.23418 16.8046 6.14634 16.8046H6.12074V16.7455C6.1953 16.7455 6.2717 16.7533 6.3461 16.7533C6.40498 16.7533 6.46194 16.7455 6.52066 16.7455L7.39338 17.7306Z" fill="#211E1F"/>
<path d="M7.50686 18.1563L7.42606 18.1532L6.43102 17.0411V17.8291C6.43342 18.0002 6.45934 18.0487 6.60702 18.0506H6.64902V18.1267H6.64022C6.55542 18.1267 6.47102 18.1187 6.38742 18.1187C6.29958 18.1187 6.20958 18.1267 6.12062 18.1267H6.11206V18.0506H6.14822C6.27782 18.0499 6.31478 17.9665 6.31622 17.8097V16.9815C6.31598 16.8767 6.23038 16.8132 6.1463 16.813H6.11206V16.7371H6.12062C6.19558 16.7371 6.27238 16.7447 6.3459 16.7447C6.4043 16.7447 6.4611 16.7371 6.52718 16.74L7.38878 17.7128V16.9896C7.38774 16.8331 7.28374 16.8143 7.22662 16.813H7.1747V16.7371H7.18342C7.27606 16.7371 7.3663 16.7447 7.4579 16.7447C7.53774 16.7447 7.61806 16.7371 7.6991 16.7371H7.70766V16.8129H7.6699C7.58902 16.8153 7.5059 16.8223 7.50366 17.0543V17.9491C7.50366 18.0179 7.50566 18.0866 7.51518 18.1462L7.5171 18.1563H7.50686ZM7.43246 18.1389H7.49726C7.48846 18.0799 7.48686 18.0144 7.48686 17.9491V17.0543C7.48686 16.8183 7.5855 16.7959 7.6699 16.7959H7.69062V16.7542C7.61334 16.7547 7.5359 16.7618 7.45798 16.7618C7.36822 16.7618 7.28094 16.7547 7.19214 16.7542L7.19206 16.7959H7.2267C7.28694 16.7959 7.4059 16.8229 7.4059 16.9896L7.40318 17.7327L7.39918 17.7368L7.39262 17.743L6.52062 16.7542C6.46246 16.7542 6.40566 16.7618 6.34598 16.7618C6.27398 16.7618 6.20046 16.7547 6.12942 16.7542L6.12894 16.7959H6.14638C6.23838 16.7959 6.33294 16.8663 6.33294 16.9815V17.8096C6.33294 17.9668 6.28926 18.0675 6.1483 18.068L6.12942 18.0675V18.1099C6.21438 18.1091 6.30166 18.1019 6.38742 18.1019C6.46926 18.1019 6.5507 18.1091 6.63174 18.1099V18.068H6.60694C6.4527 18.0675 6.41438 18.0001 6.41414 17.8291V16.9967L7.43246 18.1389ZM7.38886 17.7267V17.7261L7.38726 17.7247L7.38886 17.7267ZM7.99286 16.8438C7.84558 16.8438 7.84006 16.8792 7.81062 17.0227H7.75174C7.7595 16.9677 7.76934 16.9127 7.77526 16.8555C7.78318 16.8004 7.78694 16.7455 7.78694 16.6886H7.83414C7.8499 16.7476 7.89894 16.7455 7.95206 16.7455H8.96342C9.01646 16.7455 9.06542 16.7437 9.0695 16.6845L9.11622 16.6924C9.10862 16.7455 9.1007 16.7987 9.09478 16.8518C9.09126 16.9048 9.09126 16.958 9.09126 17.011L9.03222 17.0329C9.02814 16.9602 9.01838 16.8438 8.88718 16.8438H8.56558V17.8901C8.56558 18.0417 8.6343 18.0591 8.72806 18.0591H8.7655V18.1183C8.68902 18.1183 8.55158 18.1106 8.44598 18.1106C8.32838 18.1106 8.19094 18.1183 8.11438 18.1183V18.0591H8.15174C8.25982 18.0591 8.31446 18.0494 8.31446 17.8942V16.8438H7.99286Z" fill="#211E1F"/>
<path d="M8.76587 18.1266C8.68867 18.1266 8.55147 18.1187 8.44611 18.1187C8.32867 18.1187 8.19147 18.1266 8.11451 18.1266H8.10635V18.0506H8.15195C8.25995 18.048 8.30347 18.0466 8.30595 17.8942V16.8522H7.99291V16.8349H8.32283V17.8941C8.32283 18.0518 8.25955 18.0678 8.15187 18.0679H8.12307V18.1094C8.20035 18.109 8.33227 18.1019 8.44603 18.1019C8.54827 18.1019 8.67939 18.109 8.75683 18.1094V18.0679H8.72819C8.63339 18.0678 8.55715 18.0445 8.55715 17.89V16.8349H8.88723C9.01883 16.8354 9.03603 16.9477 9.04035 17.0206L9.08259 17.005C9.08259 16.9537 9.08291 16.9022 9.08643 16.8505C9.09211 16.7998 9.09931 16.7497 9.10667 16.6995L9.07675 16.6945C9.06763 16.7518 9.01259 16.7546 8.96315 16.7541H7.94203C7.89595 16.7541 7.84555 16.7518 7.82795 16.697H7.79563C7.79539 16.7503 7.79163 16.8036 7.78403 16.8564C7.77835 16.9105 7.76939 16.9624 7.76203 17.0143H7.80403C7.82987 16.8773 7.84667 16.8329 7.99291 16.8349V16.8522C7.84803 16.8548 7.85107 16.8794 7.81915 17.0247L7.81763 17.0314H7.74219L7.74331 17.0212C7.75115 16.9661 7.76107 16.9113 7.76691 16.854C7.77507 16.7994 7.77891 16.7449 7.77891 16.6884V16.6798H7.84107L7.84243 16.686C7.85587 16.7356 7.89219 16.7359 7.94203 16.7367H8.96339C9.01803 16.7359 9.05779 16.7351 9.06115 16.6837L9.06195 16.6744L9.07075 16.6763L9.12611 16.6851L9.12491 16.6936C9.11671 16.7463 9.10959 16.7992 9.10355 16.8522C9.09955 16.9046 9.09955 16.9578 9.09955 17.0108V17.017L9.09419 17.0191L9.02467 17.0445L9.02419 17.033C9.01899 16.9591 9.01123 16.8522 8.88739 16.8522H8.57443V17.8899C8.57619 18.0383 8.63491 18.0486 8.72827 18.0504H8.77427V18.1265H8.76595L8.76587 18.1266ZM9.17907 18.059H9.20667C9.27707 18.059 9.35171 18.0494 9.35171 17.947V16.9168C9.35171 16.8142 9.27715 16.8046 9.20667 16.8046H9.17907V16.7455C9.29843 16.7455 9.50267 16.7533 9.66707 16.7533C9.83211 16.7533 10.0356 16.7455 10.1688 16.7455C10.1658 16.8458 10.1672 16.9462 10.1732 17.0463L10.114 17.0622C10.1047 16.9344 10.0812 16.8322 9.87515 16.8322H9.60283V17.3473H9.83595C9.95355 17.3473 9.97915 17.2806 9.99075 17.1741H10.0495C10.0416 17.3255 10.0416 17.4771 10.0495 17.6285L9.99075 17.6402C9.97923 17.5223 9.97323 17.4457 9.83779 17.4457H9.60291V17.9037C9.60291 18.0317 9.71611 18.0317 9.84179 18.0317C10.0771 18.0317 10.1808 18.0158 10.2397 17.7919L10.2947 17.8054C10.2685 17.9088 10.2464 18.0132 10.2282 18.1183C10.1026 18.1183 9.87699 18.1106 9.70075 18.1106C9.52395 18.1106 9.29091 18.1183 9.17915 18.1183L9.17907 18.059Z" fill="#211E1F"/>
<path d="M10.2279 18.1266C10.1019 18.1266 9.87657 18.1186 9.70049 18.1186C9.52385 18.1186 9.29089 18.1266 9.17889 18.1266H9.17065V18.0506H9.20641C9.27753 18.0495 9.34193 18.0432 9.34289 17.9471V16.9168C9.34193 16.8208 9.27753 16.8144 9.20641 16.8129H9.17065V16.7371H9.17889C9.29857 16.7371 9.50249 16.7446 9.66689 16.7446C9.83177 16.7446 10.0352 16.7371 10.1687 16.7371H10.1775L10.1771 16.7459C10.1757 16.7798 10.1751 16.8136 10.1752 16.8474C10.1752 16.9154 10.1771 16.9898 10.1811 17.0458L10.1814 17.0529L10.1748 17.0548L10.1059 17.0728L10.1055 17.0627C10.0939 16.9351 10.077 16.8426 9.87513 16.8406H9.61089L9.61065 17.3384H9.83577C9.94857 17.3374 9.96889 17.2794 9.98217 17.1734L9.98297 17.1657H10.0581L10.0579 17.1745C10.054 17.2511 10.0519 17.3277 10.0517 17.4044C10.0517 17.4788 10.0541 17.5534 10.0579 17.6283L10.0581 17.6353L10.051 17.6369L9.98297 17.6505L9.98217 17.6413C9.96873 17.5213 9.96777 17.4555 9.83753 17.4541L9.61089 17.4539V17.9038C9.61105 18.0232 9.71377 18.0225 9.84161 18.0232C10.0776 18.0218 10.1723 18.0104 10.2315 17.7894L10.2334 17.7815L10.2416 17.7831L10.3044 17.7993L10.3025 17.8074C10.2772 17.9116 10.2537 18.0155 10.2361 18.1197L10.2345 18.1266H10.2279ZM10.2207 18.1095C10.2384 18.0096 10.2596 17.9103 10.2842 17.8118L10.2454 17.802C10.1867 18.0221 10.073 18.0417 9.84161 18.0402C9.71817 18.0402 9.59441 18.0402 9.59385 17.9037V17.4371H9.83753C9.97441 17.4356 9.98841 17.5186 9.99809 17.6305L10.0405 17.6217C10.033 17.4755 10.033 17.329 10.0405 17.1828L9.99809 17.1827C9.98721 17.2851 9.95529 17.3571 9.83569 17.3558H9.59385V16.8234H9.87505C10.0791 16.822 10.1128 16.9276 10.1215 17.0513L10.1639 17.0398C10.1601 16.9758 10.1582 16.9116 10.1581 16.8474C10.1581 16.8138 10.1589 16.782 10.16 16.7542C10.0268 16.7547 9.82825 16.7618 9.66689 16.7618C9.50577 16.7618 9.30745 16.7547 9.18737 16.7542V16.7958H9.20641C9.27625 16.7958 9.35977 16.8082 9.36001 16.9168V17.9471C9.35977 18.0554 9.27625 18.0674 9.20641 18.068H9.18737V18.1094C9.30177 18.1094 9.52817 18.102 9.70049 18.102C9.87337 18.102 10.0942 18.1094 10.2207 18.1094V18.1095ZM10.5591 16.9539C10.5591 16.8105 10.4808 16.8046 10.4198 16.8046H10.3846V16.7454C10.4474 16.7454 10.5687 16.7534 10.6884 16.7534C10.806 16.7534 10.9003 16.7454 11.004 16.7454C11.2508 16.7454 11.4707 16.8124 11.4707 17.0919C11.4707 17.2685 11.3531 17.3767 11.1983 17.4379L11.5335 17.9411C11.5883 18.0243 11.6274 18.0475 11.7236 18.059V18.1183C11.6588 18.1183 11.5961 18.1106 11.5315 18.1106C11.4707 18.1106 11.4078 18.1183 11.3472 18.1183C11.1963 17.9197 11.0667 17.7072 10.9392 17.4809H10.8103V17.9019C10.8103 18.0535 10.8805 18.059 10.9707 18.059H11.006V18.1183C10.894 18.1183 10.7807 18.1106 10.6688 18.1106C10.5746 18.1106 10.4824 18.1183 10.3846 18.1183V18.059H10.4198C10.4926 18.059 10.5591 18.026 10.5591 17.953V16.9538L10.5591 16.9539ZM10.8103 17.4102H10.9059C11.1021 17.4102 11.2078 17.3354 11.2078 17.1034C11.2078 16.9286 11.0961 16.8163 10.9214 16.8163C10.8626 16.8163 10.8375 16.8225 10.8102 16.8242V17.4102H10.8103Z" fill="#211E1F"/>
<path d="M11.7237 18.1266C11.658 18.1266 11.5956 18.1187 11.5311 18.1187C11.4713 18.1187 11.4087 18.1267 11.3404 18.1234C11.19 17.9255 11.0612 17.7143 10.9344 17.4896H10.8185V17.9017C10.8206 18.0497 10.8799 18.0484 10.9705 18.0506H11.0145V18.1267H11.0057C10.8937 18.1267 10.78 18.1187 10.6686 18.1187C10.5749 18.1187 10.483 18.1267 10.3846 18.1267H10.376V18.0506H10.4197C10.4905 18.0502 10.5501 18.0194 10.5503 17.9531V16.9539C10.5488 16.8143 10.4807 16.8151 10.4197 16.8131H10.376V16.7369H10.3845C10.4481 16.7369 10.569 16.7446 10.6885 16.7446C10.8055 16.7446 10.8997 16.7369 11.0041 16.7369C11.2512 16.7374 11.4788 16.8058 11.4794 17.0914C11.4794 17.269 11.3624 17.3799 11.211 17.4418L11.5405 17.9365C11.5953 18.0181 11.6294 18.0383 11.7249 18.0506L11.7321 18.0517V18.1267L11.7237 18.1266ZM10.8101 17.4725H10.9441L10.9464 17.4768C11.0741 17.7027 11.2029 17.9149 11.3473 18.1099C11.4071 18.1099 11.4701 18.1018 11.5311 18.1018C11.5937 18.1018 11.6541 18.1086 11.7152 18.1096V18.0666C11.6232 18.055 11.5801 18.0275 11.5265 17.9458L11.1853 17.4338L11.1949 17.4298C11.3484 17.3694 11.4619 17.2642 11.4621 17.0914C11.4619 16.8186 11.2506 16.7553 11.0041 16.7542C10.9007 16.7542 10.8065 16.7619 10.6885 16.7619C10.5733 16.7619 10.457 16.7547 10.3929 16.7542V16.7958H10.4197C10.4807 16.796 10.5674 16.8061 10.5674 16.9539V17.9531C10.5674 18.032 10.4936 18.068 10.4197 18.0682H10.3929V18.1096C10.4873 18.1094 10.5765 18.1018 10.6686 18.1018C10.7782 18.1018 10.8889 18.1094 10.9973 18.1096V18.0682H10.9705C10.8811 18.068 10.8014 18.0569 10.8014 17.9017V17.4725H10.81H10.8101ZM10.8101 17.4185H10.8014V16.8163L10.8089 16.8157C10.8357 16.8136 10.8622 16.808 10.9215 16.808C11.1001 16.808 11.2162 16.9245 11.2165 17.1038C11.216 17.3386 11.1037 17.4183 10.906 17.4184H10.81L10.8101 17.4185ZM10.906 17.4015C11.1001 17.3999 11.1977 17.3323 11.1998 17.1038C11.1987 16.9319 11.0922 16.8254 10.9214 16.8246C10.8685 16.8246 10.8436 16.8295 10.8185 16.8318V17.4015H10.906ZM13.0548 17.7307L13.0584 17.7269V16.9895C13.0584 16.8281 12.9468 16.8046 12.888 16.8046H12.845V16.7455C12.937 16.7455 13.0271 16.7534 13.1194 16.7534C13.1999 16.7534 13.28 16.7455 13.3609 16.7455V16.8046H13.3313C13.2489 16.8046 13.1568 16.8202 13.1568 17.0542V17.9493C13.1568 18.018 13.1587 18.0867 13.1684 18.1477H13.094L12.0844 17.0189V17.8291C12.0844 18.0003 12.1177 18.059 12.2685 18.059H12.3019V18.1183C12.2177 18.1183 12.1333 18.1106 12.0491 18.1106C11.9606 18.1106 11.8705 18.1183 11.7824 18.1183V18.059H11.8096C11.945 18.059 11.9862 17.9669 11.9862 17.8097V16.9814C11.9862 16.8713 11.8961 16.8046 11.808 16.8046H11.7824V16.7456C11.8566 16.7456 11.9334 16.7534 12.0078 16.7534C12.0662 16.7534 12.1233 16.7456 12.1822 16.7456L13.0548 17.7307Z" fill="#211E1F"/>
<path d="M13.1684 18.1562L13.0876 18.1535L12.0926 17.0411V17.8291C12.0949 18.0002 12.1207 18.0487 12.2686 18.0507H12.3102V18.1267H12.3015C12.2167 18.1267 12.1327 18.1187 12.0486 18.1187C11.961 18.1187 11.8705 18.1267 11.7822 18.1267H11.7734V18.0507H11.8094C11.9389 18.0501 11.976 17.9665 11.9773 17.8091V16.9814C11.9771 16.8766 11.8916 16.8131 11.8078 16.813H11.7734V16.737H11.7822C11.857 16.737 11.9338 16.7447 12.0077 16.7447C12.0653 16.7447 12.1222 16.7369 12.188 16.7396L13.0498 17.7129V16.9894C13.0493 16.8331 12.9449 16.8138 12.8879 16.813H12.8361V16.737H12.8447C12.9374 16.737 13.0277 16.7447 13.1193 16.7447C13.1993 16.7447 13.2796 16.7369 13.3604 16.7369H13.3689V16.813H13.3313C13.2504 16.8151 13.167 16.8224 13.165 17.0543V17.9491C13.165 18.0179 13.1667 18.0861 13.1766 18.1466L13.1778 18.1562H13.1684ZM13.0939 18.139H13.1583C13.1498 18.0799 13.1478 18.0145 13.1478 17.9491V17.0543C13.148 16.8183 13.2472 16.7965 13.3313 16.7958H13.3518V16.7542C13.2748 16.7547 13.1972 16.7619 13.1193 16.7619C13.0293 16.7619 12.9418 16.7547 12.853 16.7542V16.7958H12.8879C12.9482 16.7965 13.0671 16.823 13.0671 16.9894L13.0644 17.7328L13.0606 17.7368L13.0546 17.7432L12.182 16.7543C12.1238 16.7543 12.067 16.7619 12.0077 16.7619C11.9351 16.7619 11.8618 16.7547 11.7905 16.7543V16.7959H11.8078C11.8998 16.7965 11.9944 16.8662 11.9944 16.9814V17.8091C11.9944 17.9671 11.9501 18.0675 11.8095 18.0681L11.7905 18.0679V18.1095C11.8751 18.1091 11.9626 18.102 12.0486 18.102C12.1309 18.102 12.2123 18.1091 12.2934 18.1095V18.0681H12.2686C12.1142 18.0679 12.0756 18.0002 12.0753 17.8291V16.9971L13.0939 18.139ZM13.0498 17.7269V17.7263L13.0482 17.7247L13.0498 17.7269ZM13.6761 17.8371C13.6562 17.9038 13.6326 17.9553 13.6326 17.9903C13.6326 18.0495 13.7151 18.0591 13.7796 18.0591H13.8014V18.1183C13.7223 18.1136 13.6431 18.111 13.5638 18.1106C13.4933 18.1106 13.423 18.1142 13.3524 18.1184V18.0591H13.3642C13.4406 18.0591 13.5055 18.0139 13.5344 17.9312L13.8485 17.0288C13.8738 16.956 13.9094 16.8576 13.9213 16.7848C13.9837 16.7634 14.0622 16.724 14.0994 16.7003C14.1054 16.6983 14.1089 16.6963 14.115 16.6963C14.1209 16.6963 14.1246 16.6963 14.129 16.7024C14.1347 16.7179 14.1404 16.7358 14.1467 16.7515L14.5074 17.7801C14.5309 17.8488 14.5542 17.9215 14.5796 17.9807C14.6032 18.0358 14.6446 18.0591 14.7094 18.0591H14.721V18.1184C14.6309 18.1136 14.5407 18.111 14.4506 18.1107C14.3544 18.1107 14.2562 18.1142 14.1562 18.1184V18.0591H14.1779C14.2228 18.0591 14.2995 18.0515 14.2995 18.0023C14.2995 17.9767 14.2818 17.9237 14.2599 17.8606L14.1837 17.6324H13.7386L13.6761 17.8371V17.8371ZM13.9622 16.9659H13.9582L13.7758 17.5224H14.1422L13.9622 16.9659Z" fill="#211E1F"/>
<path d="M14.7203 18.1267C14.6321 18.1227 14.5438 18.1187 14.4505 18.1187C14.3543 18.1187 14.2567 18.1227 14.1563 18.1267L14.1475 18.1272V18.0503H14.1777C14.2231 18.0503 14.2905 18.0399 14.2905 18.0022C14.2911 17.9798 14.2734 17.9259 14.2518 17.8632L14.1772 17.6408H13.7447L13.6838 17.8395C13.6639 17.9066 13.6404 17.9586 13.6405 17.9906C13.6412 18.0386 13.7145 18.0503 13.7795 18.0503H13.8097V18.1271L13.8009 18.1267C13.7224 18.1227 13.6423 18.1187 13.5641 18.1187C13.4938 18.1187 13.4232 18.1227 13.3529 18.1267L13.3438 18.1272V18.0503H13.364C13.437 18.05 13.4979 18.0085 13.5262 17.9284L13.8402 17.0259C13.8658 16.953 13.9012 16.855 13.9181 16.7766C13.9801 16.7544 14.0398 16.7261 14.0961 16.6922C14.1016 16.6903 14.107 16.6876 14.115 16.6876C14.1193 16.6874 14.1236 16.6884 14.1274 16.6904C14.1312 16.6925 14.1344 16.6955 14.1366 16.6991C14.1422 16.7153 14.1484 16.7327 14.1543 16.7487L14.5154 17.7772C14.5386 17.8462 14.562 17.9189 14.5875 17.977C14.6102 18.0295 14.6463 18.0501 14.7093 18.0503H14.7293V18.1272L14.7203 18.1267ZM14.1646 18.1091C14.2618 18.1057 14.3568 18.1019 14.4505 18.1019C14.5415 18.1019 14.6268 18.1057 14.7121 18.1091V18.068H14.7093C14.6422 18.0684 14.5957 18.042 14.5717 17.984C14.5461 17.9243 14.5222 17.8514 14.4993 17.7825L14.1382 16.7542C14.1323 16.7385 14.1265 16.7206 14.1214 16.7067C14.1198 16.7048 14.1201 16.7048 14.1185 16.7048H14.115C14.1109 16.7048 14.1086 16.706 14.1036 16.7074C14.0658 16.7321 13.9871 16.7707 13.929 16.7861C13.9169 16.8605 13.8817 16.9586 13.8561 17.0315L13.5424 17.9341C13.5125 18.0195 13.4437 18.0682 13.364 18.068H13.3609V18.1091C13.4281 18.1057 13.4961 18.1019 13.5641 18.1019C13.6398 18.1019 13.7173 18.1057 13.7921 18.1091V18.068H13.7795C13.7157 18.0672 13.6265 18.06 13.6241 17.9906C13.6242 17.9514 13.6483 17.901 13.6674 17.8346L13.676 17.8372L13.6674 17.8343L13.732 17.6241H14.1891L14.2678 17.8578C14.2898 17.921 14.3077 17.9733 14.3077 18.0022C14.3049 18.0626 14.2221 18.0668 14.1777 18.068H14.1646V18.1091ZM13.7638 17.5308L13.9516 16.9572H13.9622H13.9681L14.1541 17.5308H13.7638ZM13.7873 17.5138H14.1305L13.9599 16.9867L13.7873 17.5138ZM14.8071 16.8438C14.6599 16.8438 14.6542 16.8792 14.6246 17.0227H14.5657C14.5734 16.9677 14.5833 16.9127 14.5895 16.8555C14.5974 16.8004 14.6009 16.7455 14.6009 16.6886H14.6482C14.6639 16.7476 14.7131 16.7455 14.7657 16.7455H15.7778C15.8303 16.7455 15.8793 16.7437 15.8833 16.6845L15.9302 16.6924C15.9228 16.7455 15.915 16.7987 15.909 16.8518C15.9048 16.9048 15.9048 16.958 15.9048 17.011L15.8461 17.0328C15.8424 16.9602 15.8326 16.8438 15.7012 16.8438H15.3796V17.8901C15.3796 18.0417 15.4484 18.0591 15.5422 18.0591H15.5794V18.1183C15.503 18.1183 15.366 18.1106 15.26 18.1106C15.1425 18.1106 15.005 18.1183 14.9286 18.1183V18.0591H14.9657C15.0737 18.0591 15.1288 18.0494 15.1288 17.8942V16.8438H14.8071Z" fill="#211E1F"/>
<path d="M15.5796 18.1267C15.5026 18.1267 15.3653 18.1187 15.2601 18.1187C15.1429 18.1187 15.0056 18.1267 14.9287 18.1267H14.9201V18.0506H14.9658C15.0739 18.0479 15.1173 18.0466 15.1201 17.8942L15.1197 16.8523H14.8072V16.835H15.137V17.8942C15.137 18.0519 15.0735 18.0674 14.9658 18.0678H14.937V18.1099C15.0146 18.1091 15.1463 18.1019 15.2601 18.1019C15.3625 18.1019 15.4935 18.1091 15.571 18.1099V18.0679H15.5421C15.4478 18.0675 15.3714 18.0447 15.3712 17.8901V16.835H15.7013C15.8329 16.8355 15.8501 16.9478 15.8538 17.0206L15.8966 17.005C15.8966 16.9538 15.8968 16.9023 15.9006 16.8508C15.906 16.8002 15.9133 16.7498 15.9206 16.6996L15.8909 16.6945C15.882 16.7518 15.8266 16.755 15.7778 16.7541H14.7559C14.7097 16.7547 14.6597 16.7519 14.6418 16.6967H14.6098C14.6095 16.7502 14.6055 16.8036 14.5978 16.8565C14.5926 16.9107 14.5829 16.9627 14.5757 17.0144H14.6177C14.6437 16.8774 14.6606 16.8329 14.8072 16.835V16.8523C14.6618 16.8547 14.6651 16.8794 14.633 17.0248L14.6315 17.0315H14.5559L14.5571 17.0216C14.5653 16.9662 14.5751 16.9113 14.5808 16.8544C14.5888 16.7995 14.5926 16.745 14.5926 16.6885V16.6799H14.6546L14.6562 16.6861C14.67 16.7357 14.7057 16.7359 14.7559 16.7368L14.7658 16.737H15.7778C15.8319 16.736 15.8714 16.7351 15.8749 16.6839L15.8754 16.6745L15.8846 16.6764L15.9402 16.6852L15.9388 16.6937C15.9306 16.7464 15.9234 16.7993 15.9173 16.8523C15.9133 16.9047 15.9133 16.9579 15.9133 17.0109V17.017L15.9078 17.0192L15.8382 17.0446L15.8379 17.0331C15.8329 16.9592 15.8251 16.8522 15.7013 16.8522H15.3881V17.8901C15.3902 18.0384 15.4488 18.0487 15.5421 18.0506H15.588V18.1266H15.5796V18.1267ZM16.0028 18.059H16.0302C16.101 18.059 16.1751 18.0495 16.1751 17.947V16.9168C16.1751 16.8143 16.101 16.8046 16.0303 16.8046H16.0028V16.7455C16.0793 16.7455 16.1968 16.7533 16.2926 16.7533C16.391 16.7533 16.5086 16.7455 16.6009 16.7455V16.8046H16.5733C16.5028 16.8046 16.4281 16.8143 16.4281 16.9168V17.947C16.4281 18.0494 16.5028 18.0591 16.5733 18.0591H16.6009V18.1182C16.5066 18.1182 16.3889 18.1106 16.2911 18.1106C16.1949 18.1106 16.0793 18.1183 16.0028 18.1183V18.059Z" fill="#211E1F"/>
<path d="M16.6008 18.1266C16.5061 18.1266 16.3887 18.1186 16.2909 18.1186C16.1951 18.1186 16.0793 18.1266 16.0027 18.1266H15.9941V18.0506H16.0301C16.101 18.0494 16.166 18.0434 16.1663 17.947V16.9168C16.166 16.8208 16.101 16.8142 16.0301 16.8129H15.9941V16.7371H16.0027C16.0793 16.7371 16.197 16.7446 16.2925 16.7446C16.3903 16.7446 16.5079 16.7371 16.6008 16.7371H16.6091V16.8129H16.5733C16.5017 16.8142 16.4373 16.8208 16.4364 16.9168V17.947C16.4373 18.0434 16.5017 18.0494 16.5733 18.0506H16.6091V18.1266H16.6008V18.1266ZM16.592 18.1094V18.0678H16.5733C16.503 18.0678 16.4198 18.0554 16.4198 17.947V16.9168C16.4198 16.8081 16.503 16.7958 16.5733 16.7958H16.592V16.7542C16.5014 16.7546 16.3881 16.7618 16.2925 16.7618C16.1997 16.7618 16.0873 16.7546 16.0113 16.7542V16.7958H16.0302C16.0999 16.7958 16.1834 16.8081 16.1837 16.9168V17.947C16.1834 18.0554 16.0999 18.0678 16.0302 18.0678H16.0113V18.1094C16.0869 18.1086 16.1978 18.1019 16.2909 18.1019C16.386 18.1019 16.4995 18.109 16.5919 18.1094H16.592ZM17.3826 16.7161C17.8005 16.7161 18.1337 16.976 18.1337 17.3947C18.1337 17.8471 17.8102 18.1478 17.3929 18.1478C16.9768 18.1478 16.6594 17.8646 16.6594 17.4418C16.6594 17.0328 16.9749 16.7161 17.3826 16.7161ZM17.4122 18.0612C17.7927 18.0612 17.8589 17.7246 17.8589 17.4379C17.8589 17.1505 17.7045 16.8026 17.3789 16.8026C17.0357 16.8026 16.9338 17.1093 16.9338 17.3726C16.9338 17.7246 17.0945 18.0612 17.4122 18.0612Z" fill="#211E1F"/>
<path d="M16.6509 17.4418C16.6517 17.0281 16.9709 16.7081 17.3827 16.7075V16.7244C16.9798 16.7244 16.6678 17.0371 16.6675 17.4418C16.6684 17.8599 16.9813 18.1388 17.393 18.1389C17.8062 18.1388 18.1251 17.8423 18.1258 17.3943C18.1254 16.9809 17.7972 16.725 17.3827 16.7244V16.7075C17.8039 16.7078 18.1415 16.9703 18.1424 17.3943C18.142 17.8515 17.8143 18.1553 17.393 18.1561C16.9737 18.1553 16.6517 17.8692 16.6509 17.4417V17.4418ZM16.9255 17.3727C16.9261 17.1082 17.0291 16.7937 17.3791 16.7937C17.7119 16.7945 17.8674 17.1491 17.8679 17.4379C17.8673 17.7247 17.8 18.0694 17.4126 18.0694V18.0527C17.7854 18.0522 17.8499 17.7247 17.8509 17.4379C17.8509 17.1529 17.6978 16.8115 17.3791 16.8111C17.0427 16.8115 16.9431 17.1107 16.9426 17.3727C16.9428 17.7229 17.102 18.0519 17.4126 18.0527V18.0694C17.087 18.069 16.9261 17.7267 16.9255 17.3726V17.3727ZM19.4551 17.7307L19.4591 17.7269V16.9895C19.4591 16.8281 19.3471 16.8047 19.2882 16.8047H19.2458V16.7455C19.3377 16.7455 19.4278 16.7533 19.5197 16.7533C19.6003 16.7533 19.6806 16.7455 19.7612 16.7455V16.8047H19.7316C19.6494 16.8047 19.5571 16.8203 19.5571 17.0543V17.9493C19.5571 18.018 19.559 18.0867 19.569 18.1477H19.4946L18.4846 17.0189V17.8291C18.4846 18.0003 18.5178 18.0591 18.6687 18.0591H18.7023V18.1183C18.6178 18.1183 18.5338 18.1106 18.4494 18.1106C18.3612 18.1106 18.2708 18.1183 18.1826 18.1183V18.0591H18.2102C18.3457 18.0591 18.3863 17.9669 18.3863 17.8097V16.9814C18.3863 16.8713 18.2966 16.8046 18.2081 16.8046H18.1825V16.7456C18.257 16.7456 18.3336 16.7534 18.4079 16.7534C18.4668 16.7534 18.5235 16.7456 18.5826 16.7456L19.4551 17.7307Z" fill="#211E1F"/>
<path d="M19.5689 18.1562L19.4878 18.1533L18.493 17.0411V17.8292C18.4951 18.0002 18.521 18.0486 18.6683 18.0503H18.7107V18.1267H18.7022C18.6172 18.1267 18.533 18.1187 18.4493 18.1187C18.3613 18.1187 18.2713 18.1267 18.1822 18.1267H18.1741V18.0503H18.21C18.3393 18.0499 18.3764 17.9665 18.378 17.8097V16.9814C18.3778 16.8767 18.2922 16.8131 18.2079 16.813H18.1741V16.7371H18.1822C18.2574 16.7371 18.3338 16.7447 18.4078 16.7447C18.466 16.7447 18.5226 16.7371 18.5889 16.74L19.4503 17.7129V16.9897C19.4498 16.8332 19.3454 16.8143 19.2879 16.813H19.2365V16.7372H19.2453C19.3376 16.7372 19.428 16.7447 19.5193 16.7447C19.5998 16.7447 19.6797 16.7372 19.761 16.7372H19.7694V16.813H19.7314C19.6507 16.8154 19.5673 16.8227 19.5656 17.0543V17.9492C19.5656 18.0179 19.5671 18.0865 19.5766 18.1467L19.5782 18.1562H19.5689ZM19.4945 18.139H19.5586C19.55 18.0799 19.5486 18.0145 19.5486 17.9491V17.0543C19.5486 16.8179 19.6474 16.7965 19.7314 16.7958H19.7526V16.7542C19.6753 16.7547 19.5978 16.7619 19.5194 16.7619C19.4302 16.7619 19.3424 16.7547 19.2537 16.7542V16.7958H19.2881C19.3489 16.7965 19.4671 16.8234 19.4671 16.9897L19.465 17.7328L19.4613 17.7368L19.455 17.7432L18.5824 16.7543C18.5246 16.7543 18.4674 16.7619 18.4078 16.7619C18.3357 16.7619 18.2621 16.7547 18.1907 16.7543V16.7959H18.208C18.3 16.7965 18.3948 16.8662 18.3948 16.9814V17.8097C18.3948 17.9669 18.351 18.0675 18.21 18.0681L18.1907 18.0679V18.1095C18.2758 18.1091 18.3631 18.102 18.4493 18.102C18.531 18.102 18.6122 18.1091 18.6937 18.1095V18.0681H18.6683C18.5145 18.0679 18.476 18.0002 18.476 17.8292V16.9967L19.4944 18.139H19.4945ZM19.4504 17.7269V17.7263L19.4488 17.7247L19.4504 17.7269ZM20.0761 17.8371C20.0569 17.9038 20.0331 17.9553 20.0331 17.9903C20.0331 18.0495 20.1157 18.0591 20.18 18.0591H20.2018V18.1183C20.1228 18.1136 20.0436 18.111 19.9645 18.1106C19.8936 18.1106 19.8234 18.1142 19.753 18.1184V18.0591H19.7642C19.841 18.0591 19.906 18.0139 19.935 17.9312L20.249 17.0288C20.2743 16.956 20.3098 16.8576 20.3213 16.7848C20.3835 16.7626 20.4433 16.7343 20.5 16.7003C20.5056 16.6983 20.5096 16.6963 20.5155 16.6963C20.5214 16.6963 20.525 16.6963 20.529 16.7024C20.535 16.7179 20.5411 16.7358 20.547 16.7515L20.9075 17.7801C20.931 17.8488 20.9544 17.9215 20.9802 17.9807C21.0038 18.0358 21.045 18.0591 21.1095 18.0591H21.1215V18.1184C21.0313 18.1136 20.941 18.111 20.8506 18.1107C20.7526 18.1112 20.6545 18.1138 20.5566 18.1184V18.0591H20.5783C20.6231 18.0591 20.7 18.0515 20.7 18.0023C20.7 17.9767 20.6822 17.9237 20.6603 17.8606L20.5842 17.6324H20.139L20.0761 17.8371V17.8371ZM20.3627 16.9659H20.3587L20.1762 17.5224H20.5431L20.3627 16.9659Z" fill="#211E1F"/>
<path d="M21.1205 18.1267C21.0323 18.1231 20.9442 18.1187 20.8505 18.1187C20.755 18.1187 20.6569 18.1231 20.5568 18.1267L20.5481 18.1272V18.0506H20.5778C20.6234 18.0506 20.6911 18.0399 20.6912 18.0022C20.6916 17.9798 20.674 17.9262 20.6521 17.8632L20.5776 17.6408H20.1448L20.0841 17.8395C20.0646 17.9069 20.0412 17.9586 20.0416 17.9903C20.0416 18.0386 20.115 18.0506 20.1799 18.0506H20.2098V18.1272L20.201 18.1267C20.1226 18.1231 20.0424 18.1187 19.9644 18.1187C19.8941 18.1187 19.8236 18.1231 19.7529 18.1267L19.7444 18.1272V18.0506H19.7641C19.8373 18.0503 19.8985 18.0082 19.927 17.9284L20.2408 17.0259C20.2658 16.953 20.3011 16.855 20.3185 16.7768C20.3801 16.7554 20.4589 16.7162 20.4969 16.6921C20.5021 16.6903 20.5073 16.6881 20.5153 16.6881C20.5197 16.6876 20.524 16.6885 20.5279 16.6905C20.5317 16.6925 20.5349 16.6956 20.5369 16.6994C20.5427 16.7149 20.5485 16.7327 20.5549 16.7487L20.9155 17.7772C20.9389 17.8462 20.9625 17.9188 20.9878 17.9774C21.0109 18.0295 21.0466 18.05 21.1091 18.0506H21.1295V18.1272L21.1205 18.1267ZM20.5649 18.1094C20.6618 18.1057 20.7573 18.1019 20.8505 18.1019C20.9417 18.1019 21.0273 18.1057 21.1127 18.1091L21.1124 18.068H21.1092C21.0428 18.0682 20.9965 18.042 20.9721 17.984C20.9463 17.9243 20.9229 17.8514 20.8995 17.7827L20.5387 16.7542C20.5328 16.7385 20.5269 16.7206 20.5221 16.7073C20.5205 16.7048 20.5206 16.7048 20.5191 16.7048H20.5154C20.5113 16.7048 20.5091 16.7062 20.5044 16.7075C20.4662 16.7317 20.3876 16.7709 20.3296 16.7861C20.3174 16.8605 20.2818 16.9586 20.2565 17.0315L19.9426 17.9342C19.9129 18.0194 19.8443 18.0682 19.7641 18.068H19.7613V18.1091C19.8287 18.1057 19.8961 18.1019 19.9644 18.1019C20.0404 18.1019 20.1177 18.1057 20.1932 18.1091V18.068H20.1798C20.1161 18.0672 20.0266 18.0602 20.0243 17.9903C20.0247 17.9513 20.0491 17.9013 20.068 17.8346L20.076 17.8372L20.068 17.8343L20.1325 17.6241H20.5898L20.6684 17.8577C20.69 17.9211 20.7078 17.9733 20.7078 18.0022C20.7049 18.0626 20.6227 18.0668 20.5778 18.068H20.5649L20.5649 18.1094ZM20.1644 17.5306L20.3524 16.9572H20.3626H20.3687L20.5541 17.5306H20.1644ZM20.1879 17.5138H20.5308L20.3603 16.987L20.1879 17.5138ZM20.3545 16.9682L20.3584 16.9667L20.3544 16.9682H20.3545ZM21.6154 17.9255C21.6154 18.0042 21.6698 18.0277 21.7326 18.0357C21.813 18.0417 21.9013 18.0417 21.9918 18.0317C22.0739 18.0218 22.1446 17.9746 22.1797 17.9255C22.2109 17.8822 22.2286 17.8271 22.2405 17.7839H22.2973C22.2758 17.8959 22.2483 18.0063 22.2247 18.1183C22.0525 18.1183 21.8797 18.1106 21.7073 18.1106C21.5345 18.1106 21.3623 18.1183 21.1897 18.1183V18.0591H21.2167C21.2877 18.0591 21.3644 18.0494 21.3644 17.9274V16.9168C21.3644 16.8143 21.2876 16.8046 21.2167 16.8046H21.1897V16.7456C21.2933 16.7456 21.3955 16.7534 21.4992 16.7534C21.5995 16.7534 21.6974 16.7456 21.7975 16.7456V16.8046H21.7481C21.6739 16.8046 21.6154 16.8068 21.6154 16.9107V17.9255Z" fill="#211E1F"/>
<path d="M22.2247 18.1267C22.0519 18.1267 21.8794 18.1188 21.7074 18.1188C21.5347 18.1188 21.3622 18.1267 21.1894 18.1267H21.1811V18.0506H21.2167C21.2879 18.049 21.355 18.0441 21.3558 17.9274V16.9165C21.355 16.8209 21.2882 16.8143 21.2167 16.813H21.1811V16.7371H21.1894C21.2937 16.7371 21.3958 16.7446 21.4994 16.7446C21.599 16.7446 21.6968 16.7371 21.7975 16.7371H21.8056V16.813H21.7483C21.6723 16.8151 21.625 16.8116 21.6235 16.9107V17.9256C21.6241 17.9988 21.6719 18.0186 21.7331 18.0272C21.7678 18.0296 21.8041 18.0311 21.8419 18.0311C21.8899 18.0311 21.9398 18.0288 21.9904 18.0234C22.0703 18.0139 22.1391 17.9677 22.1728 17.9208C22.203 17.8788 22.2204 17.8248 22.2321 17.7819L22.2339 17.7754H22.3077L22.3059 17.7858C22.2838 17.8982 22.2569 18.0082 22.2331 18.12L22.2315 18.1267L22.2247 18.1267ZM22.2177 18.1095C22.2404 18.0029 22.2661 17.8986 22.2872 17.7922H22.2469C22.2346 17.835 22.2173 17.8878 22.1864 17.9307C22.1498 17.9818 22.0772 18.0298 21.9922 18.0403C21.9409 18.0455 21.89 18.0482 21.8418 18.0482C21.8039 18.0482 21.7671 18.0465 21.7316 18.044C21.6678 18.037 21.606 18.0096 21.6062 17.9256V16.9106C21.6062 16.8014 21.6752 16.7958 21.7483 16.7958H21.7889V16.7541C21.6922 16.7547 21.597 16.7619 21.4994 16.7619C21.3978 16.7619 21.2986 16.7547 21.198 16.7541V16.7958H21.2167C21.2867 16.7958 21.3724 16.8081 21.3724 16.9163V17.9274C21.3724 18.0546 21.2871 18.0679 21.2167 18.0679H21.198V18.1094C21.3675 18.1093 21.537 18.1019 21.7074 18.1019C21.8778 18.1019 22.048 18.1093 22.2177 18.1094V18.1095ZM22.2735 16.6897C22.3917 16.6897 22.4799 16.7808 22.4799 16.8974C22.4799 17.0137 22.3917 17.1038 22.2735 17.1038C22.1554 17.1038 22.067 17.0137 22.067 16.8974C22.067 16.7808 22.1554 16.6897 22.2735 16.6897ZM22.2735 17.0654C22.3658 17.0654 22.4369 16.9862 22.4369 16.8974C22.4369 16.8082 22.367 16.7284 22.2735 16.7284C22.1807 16.7284 22.1097 16.8082 22.1097 16.8974C22.1097 16.9862 22.1807 17.0654 22.2735 17.0654ZM22.1707 17.0066V16.9963C22.1962 16.9928 22.2008 16.9936 22.2008 16.9778V16.8246C22.2008 16.803 22.1984 16.7956 22.1717 16.7967V16.7862H22.2773C22.3138 16.7862 22.3471 16.8035 22.3471 16.8412C22.3471 16.872 22.3267 16.8948 22.2983 16.9036L22.3322 16.951C22.348 16.9726 22.3658 16.9928 22.3777 16.9998V17.0066H22.3374C22.3182 17.0066 22.3013 16.9658 22.2632 16.9111H22.2403V16.9799C22.2403 16.9935 22.2451 16.9927 22.2706 16.9963V17.0066H22.1707ZM22.2403 16.8974H22.2647C22.2914 16.8974 22.3038 16.8772 22.3038 16.8446C22.3038 16.8116 22.2846 16.8 22.2634 16.8H22.2403V16.8974ZM5.78344 13.836C5.78344 13.511 5.6144 13.5323 5.45232 13.5288V13.4349C5.5928 13.4419 5.7368 13.4419 5.87752 13.4419C6.0288 13.4419 6.23432 13.4349 6.50096 13.4349C7.43392 13.4349 7.942 14.0599 7.942 14.6999C7.942 15.0579 7.7332 15.9575 6.4576 15.9575C6.27392 15.9575 6.1044 15.9505 5.9352 15.9505C5.77304 15.9505 5.6144 15.9541 5.45232 15.9576V15.8638C5.66832 15.8419 5.77312 15.8347 5.78336 15.5889V13.8361L5.78344 13.836ZM6.13664 15.5312C6.13664 15.8095 6.33504 15.842 6.51144 15.842C7.29 15.842 7.5456 15.2528 7.5456 14.7143C7.5456 14.0387 7.11312 13.5507 6.41784 13.5507C6.26984 13.5507 6.20184 13.5614 6.13664 13.5652V15.5312ZM8.06848 15.8638H8.13672C8.23752 15.8638 8.30968 15.8638 8.30968 15.7443V14.765C8.30968 14.6061 8.25568 14.584 8.12232 14.5122V14.4543C8.2916 14.4032 8.4936 14.335 8.50776 14.3242C8.5332 14.3097 8.55464 14.3058 8.57272 14.3058C8.59056 14.3058 8.59808 14.3277 8.59808 14.3567V15.7443C8.59808 15.8638 8.67728 15.8638 8.77816 15.8638H8.83936V15.9578C8.71672 15.9578 8.59056 15.9506 8.46112 15.9506C8.33144 15.9506 8.2016 15.9541 8.06848 15.9578V15.8638ZM8.45392 13.7494C8.36008 13.7494 8.27744 13.6627 8.27744 13.5687C8.27744 13.4783 8.36392 13.3949 8.45392 13.3949C8.54728 13.3949 8.63056 13.4711 8.63056 13.5687C8.63056 13.6663 8.55096 13.7494 8.45392 13.7494ZM9.18168 14.7865C9.18168 14.6529 9.14184 14.6169 8.97288 14.5482V14.4796C9.12768 14.4291 9.27528 14.382 9.44832 14.3059C9.45904 14.3059 9.4696 14.3133 9.4696 14.342V14.577C9.67536 14.429 9.852 14.3058 10.0937 14.3058C10.3996 14.3058 10.5077 14.53 10.5077 14.8119V15.7443C10.5077 15.8638 10.5869 15.8638 10.6879 15.8638H10.7528V15.9578C10.6264 15.9578 10.5003 15.9506 10.3709 15.9506C10.241 15.9506 10.1112 15.9541 9.98168 15.9578V15.8638H10.0463C10.1475 15.8638 10.2191 15.8638 10.2191 15.7443V14.8084C10.2191 14.6022 10.0937 14.5011 9.88792 14.5011C9.7728 14.5011 9.58896 14.5951 9.4696 14.6747V15.7442C9.4696 15.8638 9.54928 15.8638 9.65032 15.8638H9.71504V15.9578C9.58896 15.9578 9.46272 15.9506 9.33296 15.9506C9.20336 15.9506 9.07344 15.9541 8.94384 15.9578V15.8638H9.00888C9.10968 15.8638 9.18168 15.8638 9.18168 15.7442V14.7865ZM11.0268 14.9602C11.0193 14.9928 11.0193 15.0469 11.0268 15.1699C11.048 15.5131 11.2684 15.795 11.5562 15.795C11.7546 15.795 11.9098 15.6866 12.043 15.5529L12.0932 15.6037C11.9274 15.824 11.722 16.0119 11.4268 16.0119C10.8537 16.0119 10.7384 15.4551 10.7384 15.2241C10.7384 14.5156 11.2139 14.3058 11.466 14.3058C11.758 14.3058 12.0718 14.4901 12.0751 14.8732C12.0751 14.8951 12.0751 14.9166 12.0718 14.9385L12.0391 14.9602H11.0268ZM11.6647 14.8445C11.7546 14.8445 11.7652 14.7974 11.7652 14.7542C11.7652 14.5698 11.6535 14.4216 11.4516 14.4216C11.2321 14.4216 11.0807 14.584 11.0375 14.8445H11.6647ZM12.1581 15.8638H12.2554C12.356 15.8638 12.4281 15.8638 12.4281 15.7443V14.7288C12.4281 14.6168 12.295 14.595 12.2408 14.5662V14.5122C12.5038 14.3999 12.6481 14.3058 12.6808 14.3058C12.7022 14.3058 12.7128 14.3168 12.7128 14.3531V14.6782H12.7204C12.8103 14.5374 12.9619 14.3058 13.1814 14.3058C13.2716 14.3058 13.3868 14.3672 13.3868 14.4974C13.3868 14.595 13.3185 14.6821 13.2177 14.6821C13.1055 14.6821 13.1055 14.595 12.9796 14.595C12.9182 14.595 12.7166 14.6782 12.7166 14.8951V15.7443C12.7166 15.8638 12.7886 15.8638 12.8896 15.8638H13.0912V15.9578C12.893 15.9541 12.7422 15.9506 12.587 15.9506C12.4393 15.9506 12.2878 15.9541 12.1582 15.9578L12.1581 15.8638ZM13.5454 15.4551C13.5924 15.6938 13.7363 15.8963 13.9995 15.8963C14.2117 15.8963 14.291 15.7662 14.291 15.6397C14.291 15.2131 13.5058 15.3505 13.5058 14.7686C13.5058 14.5662 13.6681 14.3058 14.0642 14.3058C14.1794 14.3058 14.3342 14.3387 14.4747 14.411L14.5002 14.7793H14.4172C14.3812 14.5518 14.2553 14.4217 14.0244 14.4217C13.8803 14.4217 13.7435 14.5049 13.7435 14.6601C13.7435 15.0833 14.5794 14.9529 14.5794 15.5203C14.5794 15.7587 14.3884 16.0119 13.9595 16.0119C13.8154 16.0119 13.6462 15.9613 13.5202 15.8892L13.4804 15.4734L13.5454 15.4551ZM17.833 14.0891H17.7432C17.6746 13.6664 17.3756 13.4963 16.9722 13.4963C16.5575 13.4963 15.9558 13.7745 15.9558 14.6419C15.9558 15.3724 16.475 15.8963 17.0297 15.8963C17.3863 15.8963 17.682 15.6506 17.7541 15.271L17.8367 15.2925L17.7541 15.8202C17.6027 15.9143 17.1955 16.0119 16.9574 16.0119C16.1146 16.0119 15.5814 15.4661 15.5814 14.6529C15.5814 13.9119 16.2406 13.3805 16.9469 13.3805C17.2386 13.3805 17.5197 13.4748 17.7971 13.5725L17.833 14.0891ZM17.963 15.8638H18.0313C18.1323 15.8638 18.2046 15.8638 18.2046 15.7443V13.7315C18.2046 13.4963 18.1506 13.4891 18.0134 13.4494V13.3916C18.1576 13.3447 18.309 13.2796 18.3846 13.2361C18.4238 13.2145 18.453 13.1962 18.4637 13.1962C18.4857 13.1962 18.4929 13.2181 18.4929 13.2471V15.7443C18.4929 15.8638 18.572 15.8638 18.673 15.8638H18.7338V15.9578C18.6118 15.9578 18.4857 15.9506 18.3558 15.9506C18.2262 15.9506 18.0966 15.9541 17.963 15.9578V15.8638ZM20.2766 15.7586C20.2766 15.824 20.3161 15.8275 20.3772 15.8275C20.4206 15.8275 20.4745 15.824 20.5214 15.824V15.9C20.3664 15.9144 20.0709 15.9904 20.0024 16.0119L19.9843 16.001V15.7085C19.7683 15.8854 19.6024 16.0119 19.3464 16.0119C19.1518 16.0119 18.9501 15.8854 18.9501 15.5821V14.6565C18.9501 14.5627 18.9357 14.4722 18.7343 14.4543V14.3855C18.8642 14.3819 19.1518 14.3603 19.1989 14.3603C19.2389 14.3603 19.2389 14.3855 19.2389 14.465V15.3972C19.2389 15.5058 19.2389 15.8166 19.5521 15.8166C19.6745 15.8166 19.8366 15.7226 19.9878 15.5966V14.6238C19.9878 14.5518 19.815 14.5122 19.6856 14.4758V14.4108C20.0094 14.3891 20.2116 14.3603 20.2474 14.3603C20.2766 14.3603 20.2766 14.3855 20.2766 14.4255V15.7586ZM20.9936 14.5662C21.1376 14.4433 21.332 14.3058 21.5304 14.3058C21.9486 14.3058 22.2005 14.6713 22.2005 15.0649C22.2005 15.5383 21.8547 16.0119 21.3391 16.0119C21.0726 16.0119 20.9322 15.9251 20.8383 15.8855L20.7305 15.9683L20.655 15.9288C20.687 15.7156 20.7054 15.5058 20.7054 15.2855V13.7315C20.7054 13.4963 20.651 13.4891 20.5142 13.4494V13.3916C20.6587 13.3447 20.8096 13.2796 20.8854 13.2361C20.925 13.2145 20.9537 13.1962 20.9649 13.1962C20.9863 13.1962 20.9935 13.2181 20.9935 13.2471L20.9936 14.5662ZM20.9936 15.5491C20.9936 15.6866 21.1231 15.9181 21.3646 15.9181C21.7502 15.9181 21.9122 15.5383 21.9122 15.2166C21.9122 14.8263 21.617 14.5011 21.3359 14.5011C21.2022 14.5011 21.0908 14.588 20.9935 14.6713L20.9936 15.5491ZM5.44824 18.0591H5.47584C5.54624 18.0591 5.62072 18.0494 5.62072 17.947V16.9168C5.62072 16.8143 5.54624 16.8046 5.47584 16.8046H5.44824V16.7455C5.5248 16.7455 5.6424 16.7534 5.7388 16.7534C5.83664 16.7534 5.95416 16.7455 6.04632 16.7455V16.8046H6.01872C5.9484 16.8046 5.87376 16.8143 5.87376 16.9168V17.947C5.87376 18.0494 5.9484 18.0591 6.01872 18.0591H6.04632V18.1183C5.95224 18.1183 5.83432 18.1106 5.73656 18.1106C5.64048 18.1106 5.5248 18.1183 5.44824 18.1183V18.0591Z" fill="#211E1F"/>
<path d="M6.04642 18.1267C5.9517 18.1267 5.83426 18.1187 5.73658 18.1187C5.64074 18.1187 5.52546 18.1267 5.44834 18.1267H5.43994V18.0506H5.47586C5.5469 18.049 5.61162 18.0432 5.61234 17.947V16.9168C5.61162 16.8207 5.5469 16.8142 5.47586 16.8129H5.43994V16.7368H5.44834C5.52546 16.7368 5.6429 16.7446 5.73874 16.7446C5.83634 16.7446 5.9537 16.7368 6.04642 16.7368H6.05522V16.8129H6.01898C5.94786 16.8142 5.88274 16.8207 5.88234 16.9168V17.947C5.88274 18.0432 5.94786 18.0489 6.01898 18.0506H6.05514V18.1266H6.04642V18.1267ZM6.03802 18.1099V18.0679H6.01898C5.94898 18.0679 5.86562 18.0557 5.86522 17.947V16.9168C5.86562 16.8081 5.94898 16.7958 6.01898 16.7958H6.03802V16.7541C5.94746 16.7541 5.83394 16.7618 5.73882 16.7618C5.64562 16.7618 5.5329 16.7547 5.45706 16.7541V16.7958H5.47578C5.5457 16.7958 5.62938 16.8081 5.62938 16.9168V17.947C5.62938 18.0558 5.5457 18.0679 5.47578 18.0679H5.45706V18.1099C5.5329 18.1091 5.6437 18.1019 5.73658 18.1019C5.83202 18.1019 5.94554 18.1093 6.03802 18.1099ZM7.39338 17.7306L7.39738 17.7268V16.9894C7.39738 16.828 7.28538 16.8047 7.22674 16.8047H7.18346V16.7455C7.27578 16.7455 7.36586 16.7533 7.45794 16.7533C7.53826 16.7533 7.61906 16.7455 7.6993 16.7455V16.8046H7.66994C7.58738 16.8046 7.49522 16.8203 7.49522 17.0542V17.9492C7.49522 18.018 7.49722 18.0867 7.5069 18.1476H7.43226L6.42274 17.0188V17.8291C6.42274 18.0002 6.45578 18.059 6.60698 18.059H6.64018V18.1183C6.55602 18.1183 6.47186 18.1106 6.38738 18.1106C6.29938 18.1106 6.20914 18.1183 6.12082 18.1183V18.059H6.14826C6.28354 18.059 6.32458 17.9668 6.32458 17.8096V16.9813C6.32458 16.8713 6.23418 16.8046 6.14634 16.8046H6.12074V16.7455C6.1953 16.7455 6.2717 16.7533 6.3461 16.7533C6.40498 16.7533 6.46194 16.7455 6.52066 16.7455L7.39338 17.7306Z" fill="#211E1F"/>
<path d="M7.50686 18.1563L7.42606 18.1532L6.43102 17.0411V17.8291C6.43342 18.0002 6.45934 18.0487 6.60702 18.0506H6.64902V18.1267H6.64022C6.55542 18.1267 6.47102 18.1187 6.38742 18.1187C6.29958 18.1187 6.20958 18.1267 6.12062 18.1267H6.11206V18.0506H6.14822C6.27782 18.0499 6.31478 17.9665 6.31622 17.8097V16.9815C6.31598 16.8767 6.23038 16.8132 6.1463 16.813H6.11206V16.7371H6.12062C6.19558 16.7371 6.27238 16.7447 6.3459 16.7447C6.4043 16.7447 6.4611 16.7371 6.52718 16.74L7.38878 17.7128V16.9896C7.38774 16.8331 7.28374 16.8143 7.22662 16.813H7.1747V16.7371H7.18342C7.27606 16.7371 7.3663 16.7447 7.4579 16.7447C7.53774 16.7447 7.61806 16.7371 7.6991 16.7371H7.70766V16.8129H7.6699C7.58902 16.8153 7.5059 16.8223 7.50366 17.0543V17.9491C7.50366 18.0179 7.50566 18.0866 7.51518 18.1462L7.5171 18.1563H7.50686ZM7.43246 18.1389H7.49726C7.48846 18.0799 7.48686 18.0144 7.48686 17.9491V17.0543C7.48686 16.8183 7.5855 16.7959 7.6699 16.7959H7.69062V16.7542C7.61334 16.7547 7.5359 16.7618 7.45798 16.7618C7.36822 16.7618 7.28094 16.7547 7.19214 16.7542L7.19206 16.7959H7.2267C7.28694 16.7959 7.4059 16.8229 7.4059 16.9896L7.40318 17.7327L7.39918 17.7368L7.39262 17.743L6.52062 16.7542C6.46246 16.7542 6.40566 16.7618 6.34598 16.7618C6.27398 16.7618 6.20046 16.7547 6.12942 16.7542L6.12894 16.7959H6.14638C6.23838 16.7959 6.33294 16.8663 6.33294 16.9815V17.8096C6.33294 17.9668 6.28926 18.0675 6.1483 18.068L6.12942 18.0675V18.1099C6.21438 18.1091 6.30166 18.1019 6.38742 18.1019C6.46926 18.1019 6.5507 18.1091 6.63174 18.1099V18.068H6.60694C6.4527 18.0675 6.41438 18.0001 6.41414 17.8291V16.9967L7.43246 18.1389ZM7.38886 17.7267V17.7261L7.38726 17.7247L7.38886 17.7267ZM7.99286 16.8438C7.84558 16.8438 7.84006 16.8792 7.81062 17.0227H7.75174C7.7595 16.9677 7.76934 16.9127 7.77526 16.8555C7.78318 16.8004 7.78694 16.7455 7.78694 16.6886H7.83414C7.8499 16.7476 7.89894 16.7455 7.95206 16.7455H8.96342C9.01646 16.7455 9.06542 16.7437 9.0695 16.6845L9.11622 16.6924C9.10862 16.7455 9.1007 16.7987 9.09478 16.8518C9.09126 16.9048 9.09126 16.958 9.09126 17.011L9.03222 17.0329C9.02814 16.9602 9.01838 16.8438 8.88718 16.8438H8.56558V17.8901C8.56558 18.0417 8.6343 18.0591 8.72806 18.0591H8.7655V18.1183C8.68902 18.1183 8.55158 18.1106 8.44598 18.1106C8.32838 18.1106 8.19094 18.1183 8.11438 18.1183V18.0591H8.15174C8.25982 18.0591 8.31446 18.0494 8.31446 17.8942V16.8438H7.99286Z" fill="#211E1F"/>
<path d="M8.76587 18.1266C8.68867 18.1266 8.55147 18.1187 8.44611 18.1187C8.32867 18.1187 8.19147 18.1266 8.11451 18.1266H8.10635V18.0506H8.15195C8.25995 18.048 8.30347 18.0466 8.30595 17.8942V16.8522H7.99291V16.8349H8.32283V17.8941C8.32283 18.0518 8.25955 18.0678 8.15187 18.0679H8.12307V18.1094C8.20035 18.109 8.33227 18.1019 8.44603 18.1019C8.54827 18.1019 8.67939 18.109 8.75683 18.1094V18.0679H8.72819C8.63339 18.0678 8.55715 18.0445 8.55715 17.89V16.8349H8.88723C9.01883 16.8354 9.03603 16.9477 9.04035 17.0206L9.08259 17.005C9.08259 16.9537 9.08291 16.9022 9.08643 16.8505C9.09211 16.7998 9.09931 16.7497 9.10667 16.6995L9.07675 16.6945C9.06763 16.7518 9.01259 16.7546 8.96315 16.7541H7.94203C7.89595 16.7541 7.84555 16.7518 7.82795 16.697H7.79563C7.79539 16.7503 7.79163 16.8036 7.78403 16.8564C7.77835 16.9105 7.76939 16.9624 7.76203 17.0143H7.80403C7.82987 16.8773 7.84667 16.8329 7.99291 16.8349V16.8522C7.84803 16.8548 7.85107 16.8794 7.81915 17.0247L7.81763 17.0314H7.74219L7.74331 17.0212C7.75115 16.9661 7.76107 16.9113 7.76691 16.854C7.77507 16.7994 7.77891 16.7449 7.77891 16.6884V16.6798H7.84107L7.84243 16.686C7.85587 16.7356 7.89219 16.7359 7.94203 16.7367H8.96339C9.01803 16.7359 9.05779 16.7351 9.06115 16.6837L9.06195 16.6744L9.07075 16.6763L9.12611 16.6851L9.12491 16.6936C9.11671 16.7463 9.10959 16.7992 9.10355 16.8522C9.09955 16.9046 9.09955 16.9578 9.09955 17.0108V17.017L9.09419 17.0191L9.02467 17.0445L9.02419 17.033C9.01899 16.9591 9.01123 16.8522 8.88739 16.8522H8.57443V17.8899C8.57619 18.0383 8.63491 18.0486 8.72827 18.0504H8.77427V18.1265H8.76595L8.76587 18.1266ZM9.17907 18.059H9.20667C9.27707 18.059 9.35171 18.0494 9.35171 17.947V16.9168C9.35171 16.8142 9.27715 16.8046 9.20667 16.8046H9.17907V16.7455C9.29843 16.7455 9.50267 16.7533 9.66707 16.7533C9.83211 16.7533 10.0356 16.7455 10.1688 16.7455C10.1658 16.8458 10.1672 16.9462 10.1732 17.0463L10.114 17.0622C10.1047 16.9344 10.0812 16.8322 9.87515 16.8322H9.60283V17.3473H9.83595C9.95355 17.3473 9.97915 17.2806 9.99075 17.1741H10.0495C10.0416 17.3255 10.0416 17.4771 10.0495 17.6285L9.99075 17.6402C9.97923 17.5223 9.97323 17.4457 9.83779 17.4457H9.60291V17.9037C9.60291 18.0317 9.71611 18.0317 9.84179 18.0317C10.0771 18.0317 10.1808 18.0158 10.2397 17.7919L10.2947 17.8054C10.2685 17.9088 10.2464 18.0132 10.2282 18.1183C10.1026 18.1183 9.87699 18.1106 9.70075 18.1106C9.52395 18.1106 9.29091 18.1183 9.17915 18.1183L9.17907 18.059Z" fill="#211E1F"/>
<path d="M10.2279 18.1266C10.1019 18.1266 9.87657 18.1186 9.70049 18.1186C9.52385 18.1186 9.29089 18.1266 9.17889 18.1266H9.17065V18.0506H9.20641C9.27753 18.0495 9.34193 18.0432 9.34289 17.9471V16.9168C9.34193 16.8208 9.27753 16.8144 9.20641 16.8129H9.17065V16.7371H9.17889C9.29857 16.7371 9.50249 16.7446 9.66689 16.7446C9.83177 16.7446 10.0352 16.7371 10.1687 16.7371H10.1775L10.1771 16.7459C10.1757 16.7798 10.1751 16.8136 10.1752 16.8474C10.1752 16.9154 10.1771 16.9898 10.1811 17.0458L10.1814 17.0529L10.1748 17.0548L10.1059 17.0728L10.1055 17.0627C10.0939 16.9351 10.077 16.8426 9.87513 16.8406H9.61089L9.61065 17.3384H9.83577C9.94857 17.3374 9.96889 17.2794 9.98217 17.1734L9.98297 17.1657H10.0581L10.0579 17.1745C10.054 17.2511 10.0519 17.3277 10.0517 17.4044C10.0517 17.4788 10.0541 17.5534 10.0579 17.6283L10.0581 17.6353L10.051 17.6369L9.98297 17.6505L9.98217 17.6413C9.96873 17.5213 9.96777 17.4555 9.83753 17.4541L9.61089 17.4539V17.9038C9.61105 18.0232 9.71377 18.0225 9.84161 18.0232C10.0776 18.0218 10.1723 18.0104 10.2315 17.7894L10.2334 17.7815L10.2416 17.7831L10.3044 17.7993L10.3025 17.8074C10.2772 17.9116 10.2537 18.0155 10.2361 18.1197L10.2345 18.1266H10.2279ZM10.2207 18.1095C10.2384 18.0096 10.2596 17.9103 10.2842 17.8118L10.2454 17.802C10.1867 18.0221 10.073 18.0417 9.84161 18.0402C9.71817 18.0402 9.59441 18.0402 9.59385 17.9037V17.4371H9.83753C9.97441 17.4356 9.98841 17.5186 9.99809 17.6305L10.0405 17.6217C10.033 17.4755 10.033 17.329 10.0405 17.1828L9.99809 17.1827C9.98721 17.2851 9.95529 17.3571 9.83569 17.3558H9.59385V16.8234H9.87505C10.0791 16.822 10.1128 16.9276 10.1215 17.0513L10.1639 17.0398C10.1601 16.9758 10.1582 16.9116 10.1581 16.8474C10.1581 16.8138 10.1589 16.782 10.16 16.7542C10.0268 16.7547 9.82825 16.7618 9.66689 16.7618C9.50577 16.7618 9.30745 16.7547 9.18737 16.7542V16.7958H9.20641C9.27625 16.7958 9.35977 16.8082 9.36001 16.9168V17.9471C9.35977 18.0554 9.27625 18.0674 9.20641 18.068H9.18737V18.1094C9.30177 18.1094 9.52817 18.102 9.70049 18.102C9.87337 18.102 10.0942 18.1094 10.2207 18.1094V18.1095ZM10.5591 16.9539C10.5591 16.8105 10.4808 16.8046 10.4198 16.8046H10.3846V16.7454C10.4474 16.7454 10.5687 16.7534 10.6884 16.7534C10.806 16.7534 10.9003 16.7454 11.004 16.7454C11.2508 16.7454 11.4707 16.8124 11.4707 17.0919C11.4707 17.2685 11.3531 17.3767 11.1983 17.4379L11.5335 17.9411C11.5883 18.0243 11.6274 18.0475 11.7236 18.059V18.1183C11.6588 18.1183 11.5961 18.1106 11.5315 18.1106C11.4707 18.1106 11.4078 18.1183 11.3472 18.1183C11.1963 17.9197 11.0667 17.7072 10.9392 17.4809H10.8103V17.9019C10.8103 18.0535 10.8805 18.059 10.9707 18.059H11.006V18.1183C10.894 18.1183 10.7807 18.1106 10.6688 18.1106C10.5746 18.1106 10.4824 18.1183 10.3846 18.1183V18.059H10.4198C10.4926 18.059 10.5591 18.026 10.5591 17.953V16.9538L10.5591 16.9539ZM10.8103 17.4102H10.9059C11.1021 17.4102 11.2078 17.3354 11.2078 17.1034C11.2078 16.9286 11.0961 16.8163 10.9214 16.8163C10.8626 16.8163 10.8375 16.8225 10.8102 16.8242V17.4102H10.8103Z" fill="#211E1F"/>
<path d="M11.7237 18.1266C11.658 18.1266 11.5956 18.1187 11.5311 18.1187C11.4713 18.1187 11.4087 18.1267 11.3404 18.1234C11.19 17.9255 11.0612 17.7143 10.9344 17.4896H10.8185V17.9017C10.8206 18.0497 10.8799 18.0484 10.9705 18.0506H11.0145V18.1267H11.0057C10.8937 18.1267 10.78 18.1187 10.6686 18.1187C10.5749 18.1187 10.483 18.1267 10.3846 18.1267H10.376V18.0506H10.4197C10.4905 18.0502 10.5501 18.0194 10.5503 17.9531V16.9539C10.5488 16.8143 10.4807 16.8151 10.4197 16.8131H10.376V16.7369H10.3845C10.4481 16.7369 10.569 16.7446 10.6885 16.7446C10.8055 16.7446 10.8997 16.7369 11.0041 16.7369C11.2512 16.7374 11.4788 16.8058 11.4794 17.0914C11.4794 17.269 11.3624 17.3799 11.211 17.4418L11.5405 17.9365C11.5953 18.0181 11.6294 18.0383 11.7249 18.0506L11.7321 18.0517V18.1267L11.7237 18.1266ZM10.8101 17.4725H10.9441L10.9464 17.4768C11.0741 17.7027 11.2029 17.9149 11.3473 18.1099C11.4071 18.1099 11.4701 18.1018 11.5311 18.1018C11.5937 18.1018 11.6541 18.1086 11.7152 18.1096V18.0666C11.6232 18.055 11.5801 18.0275 11.5265 17.9458L11.1853 17.4338L11.1949 17.4298C11.3484 17.3694 11.4619 17.2642 11.4621 17.0914C11.4619 16.8186 11.2506 16.7553 11.0041 16.7542C10.9007 16.7542 10.8065 16.7619 10.6885 16.7619C10.5733 16.7619 10.457 16.7547 10.3929 16.7542V16.7958H10.4197C10.4807 16.796 10.5674 16.8061 10.5674 16.9539V17.9531C10.5674 18.032 10.4936 18.068 10.4197 18.0682H10.3929V18.1096C10.4873 18.1094 10.5765 18.1018 10.6686 18.1018C10.7782 18.1018 10.8889 18.1094 10.9973 18.1096V18.0682H10.9705C10.8811 18.068 10.8014 18.0569 10.8014 17.9017V17.4725H10.81H10.8101ZM10.8101 17.4185H10.8014V16.8163L10.8089 16.8157C10.8357 16.8136 10.8622 16.808 10.9215 16.808C11.1001 16.808 11.2162 16.9245 11.2165 17.1038C11.216 17.3386 11.1037 17.4183 10.906 17.4184H10.81L10.8101 17.4185ZM10.906 17.4015C11.1001 17.3999 11.1977 17.3323 11.1998 17.1038C11.1987 16.9319 11.0922 16.8254 10.9214 16.8246C10.8685 16.8246 10.8436 16.8295 10.8185 16.8318V17.4015H10.906ZM13.0548 17.7307L13.0584 17.7269V16.9895C13.0584 16.8281 12.9468 16.8046 12.888 16.8046H12.845V16.7455C12.937 16.7455 13.0271 16.7534 13.1194 16.7534C13.1999 16.7534 13.28 16.7455 13.3609 16.7455V16.8046H13.3313C13.2489 16.8046 13.1568 16.8202 13.1568 17.0542V17.9493C13.1568 18.018 13.1587 18.0867 13.1684 18.1477H13.094L12.0844 17.0189V17.8291C12.0844 18.0003 12.1177 18.059 12.2685 18.059H12.3019V18.1183C12.2177 18.1183 12.1333 18.1106 12.0491 18.1106C11.9606 18.1106 11.8705 18.1183 11.7824 18.1183V18.059H11.8096C11.945 18.059 11.9862 17.9669 11.9862 17.8097V16.9814C11.9862 16.8713 11.8961 16.8046 11.808 16.8046H11.7824V16.7456C11.8566 16.7456 11.9334 16.7534 12.0078 16.7534C12.0662 16.7534 12.1233 16.7456 12.1822 16.7456L13.0548 17.7307Z" fill="#211E1F"/>
<path d="M13.1684 18.1562L13.0876 18.1535L12.0926 17.0411V17.8291C12.0949 18.0002 12.1207 18.0487 12.2686 18.0507H12.3102V18.1267H12.3015C12.2167 18.1267 12.1327 18.1187 12.0486 18.1187C11.961 18.1187 11.8705 18.1267 11.7822 18.1267H11.7734V18.0507H11.8094C11.9389 18.0501 11.976 17.9665 11.9773 17.8091V16.9814C11.9771 16.8766 11.8916 16.8131 11.8078 16.813H11.7734V16.737H11.7822C11.857 16.737 11.9338 16.7447 12.0077 16.7447C12.0653 16.7447 12.1222 16.7369 12.188 16.7396L13.0498 17.7129V16.9894C13.0493 16.8331 12.9449 16.8138 12.8879 16.813H12.8361V16.737H12.8447C12.9374 16.737 13.0277 16.7447 13.1193 16.7447C13.1993 16.7447 13.2796 16.7369 13.3604 16.7369H13.3689V16.813H13.3313C13.2504 16.8151 13.167 16.8224 13.165 17.0543V17.9491C13.165 18.0179 13.1667 18.0861 13.1766 18.1466L13.1778 18.1562H13.1684ZM13.0939 18.139H13.1583C13.1498 18.0799 13.1478 18.0145 13.1478 17.9491V17.0543C13.148 16.8183 13.2472 16.7965 13.3313 16.7958H13.3518V16.7542C13.2748 16.7547 13.1972 16.7619 13.1193 16.7619C13.0293 16.7619 12.9418 16.7547 12.853 16.7542V16.7958H12.8879C12.9482 16.7965 13.0671 16.823 13.0671 16.9894L13.0644 17.7328L13.0606 17.7368L13.0546 17.7432L12.182 16.7543C12.1238 16.7543 12.067 16.7619 12.0077 16.7619C11.9351 16.7619 11.8618 16.7547 11.7905 16.7543V16.7959H11.8078C11.8998 16.7965 11.9944 16.8662 11.9944 16.9814V17.8091C11.9944 17.9671 11.9501 18.0675 11.8095 18.0681L11.7905 18.0679V18.1095C11.8751 18.1091 11.9626 18.102 12.0486 18.102C12.1309 18.102 12.2123 18.1091 12.2934 18.1095V18.0681H12.2686C12.1142 18.0679 12.0756 18.0002 12.0753 17.8291V16.9971L13.0939 18.139ZM13.0498 17.7269V17.7263L13.0482 17.7247L13.0498 17.7269ZM13.6761 17.8371C13.6562 17.9038 13.6326 17.9553 13.6326 17.9903C13.6326 18.0495 13.7151 18.0591 13.7796 18.0591H13.8014V18.1183C13.7223 18.1136 13.6431 18.111 13.5638 18.1106C13.4933 18.1106 13.423 18.1142 13.3524 18.1184V18.0591H13.3642C13.4406 18.0591 13.5055 18.0139 13.5344 17.9312L13.8485 17.0288C13.8738 16.956 13.9094 16.8576 13.9213 16.7848C13.9837 16.7634 14.0622 16.724 14.0994 16.7003C14.1054 16.6983 14.1089 16.6963 14.115 16.6963C14.1209 16.6963 14.1246 16.6963 14.129 16.7024C14.1347 16.7179 14.1404 16.7358 14.1467 16.7515L14.5074 17.7801C14.5309 17.8488 14.5542 17.9215 14.5796 17.9807C14.6032 18.0358 14.6446 18.0591 14.7094 18.0591H14.721V18.1184C14.6309 18.1136 14.5407 18.111 14.4506 18.1107C14.3544 18.1107 14.2562 18.1142 14.1562 18.1184V18.0591H14.1779C14.2228 18.0591 14.2995 18.0515 14.2995 18.0023C14.2995 17.9767 14.2818 17.9237 14.2599 17.8606L14.1837 17.6324H13.7386L13.6761 17.8371V17.8371ZM13.9622 16.9659H13.9582L13.7758 17.5224H14.1422L13.9622 16.9659Z" fill="#211E1F"/>
<path d="M14.7203 18.1267C14.6321 18.1227 14.5438 18.1187 14.4505 18.1187C14.3543 18.1187 14.2567 18.1227 14.1563 18.1267L14.1475 18.1272V18.0503H14.1777C14.2231 18.0503 14.2905 18.0399 14.2905 18.0022C14.2911 17.9798 14.2734 17.9259 14.2518 17.8632L14.1772 17.6408H13.7447L13.6838 17.8395C13.6639 17.9066 13.6404 17.9586 13.6405 17.9906C13.6412 18.0386 13.7145 18.0503 13.7795 18.0503H13.8097V18.1271L13.8009 18.1267C13.7224 18.1227 13.6423 18.1187 13.5641 18.1187C13.4938 18.1187 13.4232 18.1227 13.3529 18.1267L13.3438 18.1272V18.0503H13.364C13.437 18.05 13.4979 18.0085 13.5262 17.9284L13.8402 17.0259C13.8658 16.953 13.9012 16.855 13.9181 16.7766C13.9801 16.7544 14.0398 16.7261 14.0961 16.6922C14.1016 16.6903 14.107 16.6876 14.115 16.6876C14.1193 16.6874 14.1236 16.6884 14.1274 16.6904C14.1312 16.6925 14.1344 16.6955 14.1366 16.6991C14.1422 16.7153 14.1484 16.7327 14.1543 16.7487L14.5154 17.7772C14.5386 17.8462 14.562 17.9189 14.5875 17.977C14.6102 18.0295 14.6463 18.0501 14.7093 18.0503H14.7293V18.1272L14.7203 18.1267ZM14.1646 18.1091C14.2618 18.1057 14.3568 18.1019 14.4505 18.1019C14.5415 18.1019 14.6268 18.1057 14.7121 18.1091V18.068H14.7093C14.6422 18.0684 14.5957 18.042 14.5717 17.984C14.5461 17.9243 14.5222 17.8514 14.4993 17.7825L14.1382 16.7542C14.1323 16.7385 14.1265 16.7206 14.1214 16.7067C14.1198 16.7048 14.1201 16.7048 14.1185 16.7048H14.115C14.1109 16.7048 14.1086 16.706 14.1036 16.7074C14.0658 16.7321 13.9871 16.7707 13.929 16.7861C13.9169 16.8605 13.8817 16.9586 13.8561 17.0315L13.5424 17.9341C13.5125 18.0195 13.4437 18.0682 13.364 18.068H13.3609V18.1091C13.4281 18.1057 13.4961 18.1019 13.5641 18.1019C13.6398 18.1019 13.7173 18.1057 13.7921 18.1091V18.068H13.7795C13.7157 18.0672 13.6265 18.06 13.6241 17.9906C13.6242 17.9514 13.6483 17.901 13.6674 17.8346L13.676 17.8372L13.6674 17.8343L13.732 17.6241H14.1891L14.2678 17.8578C14.2898 17.921 14.3077 17.9733 14.3077 18.0022C14.3049 18.0626 14.2221 18.0668 14.1777 18.068H14.1646V18.1091ZM13.7638 17.5308L13.9516 16.9572H13.9622H13.9681L14.1541 17.5308H13.7638ZM13.7873 17.5138H14.1305L13.9599 16.9867L13.7873 17.5138ZM14.8071 16.8438C14.6599 16.8438 14.6542 16.8792 14.6246 17.0227H14.5657C14.5734 16.9677 14.5833 16.9127 14.5895 16.8555C14.5974 16.8004 14.6009 16.7455 14.6009 16.6886H14.6482C14.6639 16.7476 14.7131 16.7455 14.7657 16.7455H15.7778C15.8303 16.7455 15.8793 16.7437 15.8833 16.6845L15.9302 16.6924C15.9228 16.7455 15.915 16.7987 15.909 16.8518C15.9048 16.9048 15.9048 16.958 15.9048 17.011L15.8461 17.0328C15.8424 16.9602 15.8326 16.8438 15.7012 16.8438H15.3796V17.8901C15.3796 18.0417 15.4484 18.0591 15.5422 18.0591H15.5794V18.1183C15.503 18.1183 15.366 18.1106 15.26 18.1106C15.1425 18.1106 15.005 18.1183 14.9286 18.1183V18.0591H14.9657C15.0737 18.0591 15.1288 18.0494 15.1288 17.8942V16.8438H14.8071Z" fill="#211E1F"/>
<path d="M15.5796 18.1267C15.5026 18.1267 15.3653 18.1187 15.2601 18.1187C15.1429 18.1187 15.0056 18.1267 14.9287 18.1267H14.9201V18.0506H14.9658C15.0739 18.0479 15.1173 18.0466 15.1201 17.8942L15.1197 16.8523H14.8072V16.835H15.137V17.8942C15.137 18.0519 15.0735 18.0674 14.9658 18.0678H14.937V18.1099C15.0146 18.1091 15.1463 18.1019 15.2601 18.1019C15.3625 18.1019 15.4935 18.1091 15.571 18.1099V18.0679H15.5421C15.4478 18.0675 15.3714 18.0447 15.3712 17.8901V16.835H15.7013C15.8329 16.8355 15.8501 16.9478 15.8538 17.0206L15.8966 17.005C15.8966 16.9538 15.8968 16.9023 15.9006 16.8508C15.906 16.8002 15.9133 16.7498 15.9206 16.6996L15.8909 16.6945C15.882 16.7518 15.8266 16.755 15.7778 16.7541H14.7559C14.7097 16.7547 14.6597 16.7519 14.6418 16.6967H14.6098C14.6095 16.7502 14.6055 16.8036 14.5978 16.8565C14.5926 16.9107 14.5829 16.9627 14.5757 17.0144H14.6177C14.6437 16.8774 14.6606 16.8329 14.8072 16.835V16.8523C14.6618 16.8547 14.6651 16.8794 14.633 17.0248L14.6315 17.0315H14.5559L14.5571 17.0216C14.5653 16.9662 14.5751 16.9113 14.5808 16.8544C14.5888 16.7995 14.5926 16.745 14.5926 16.6885V16.6799H14.6546L14.6562 16.6861C14.67 16.7357 14.7057 16.7359 14.7559 16.7368L14.7658 16.737H15.7778C15.8319 16.736 15.8714 16.7351 15.8749 16.6839L15.8754 16.6745L15.8846 16.6764L15.9402 16.6852L15.9388 16.6937C15.9306 16.7464 15.9234 16.7993 15.9173 16.8523C15.9133 16.9047 15.9133 16.9579 15.9133 17.0109V17.017L15.9078 17.0192L15.8382 17.0446L15.8379 17.0331C15.8329 16.9592 15.8251 16.8522 15.7013 16.8522H15.3881V17.8901C15.3902 18.0384 15.4488 18.0487 15.5421 18.0506H15.588V18.1266H15.5796V18.1267ZM16.0028 18.059H16.0302C16.101 18.059 16.1751 18.0495 16.1751 17.947V16.9168C16.1751 16.8143 16.101 16.8046 16.0303 16.8046H16.0028V16.7455C16.0793 16.7455 16.1968 16.7533 16.2926 16.7533C16.391 16.7533 16.5086 16.7455 16.6009 16.7455V16.8046H16.5733C16.5028 16.8046 16.4281 16.8143 16.4281 16.9168V17.947C16.4281 18.0494 16.5028 18.0591 16.5733 18.0591H16.6009V18.1182C16.5066 18.1182 16.3889 18.1106 16.2911 18.1106C16.1949 18.1106 16.0793 18.1183 16.0028 18.1183V18.059Z" fill="#211E1F"/>
<path d="M16.6008 18.1266C16.5061 18.1266 16.3887 18.1186 16.2909 18.1186C16.1951 18.1186 16.0793 18.1266 16.0027 18.1266H15.9941V18.0506H16.0301C16.101 18.0494 16.166 18.0434 16.1663 17.947V16.9168C16.166 16.8208 16.101 16.8142 16.0301 16.8129H15.9941V16.7371H16.0027C16.0793 16.7371 16.197 16.7446 16.2925 16.7446C16.3903 16.7446 16.5079 16.7371 16.6008 16.7371H16.6091V16.8129H16.5733C16.5017 16.8142 16.4373 16.8208 16.4364 16.9168V17.947C16.4373 18.0434 16.5017 18.0494 16.5733 18.0506H16.6091V18.1266H16.6008V18.1266ZM16.592 18.1094V18.0678H16.5733C16.503 18.0678 16.4198 18.0554 16.4198 17.947V16.9168C16.4198 16.8081 16.503 16.7958 16.5733 16.7958H16.592V16.7542C16.5014 16.7546 16.3881 16.7618 16.2925 16.7618C16.1997 16.7618 16.0873 16.7546 16.0113 16.7542V16.7958H16.0302C16.0999 16.7958 16.1834 16.8081 16.1837 16.9168V17.947C16.1834 18.0554 16.0999 18.0678 16.0302 18.0678H16.0113V18.1094C16.0869 18.1086 16.1978 18.1019 16.2909 18.1019C16.386 18.1019 16.4995 18.109 16.5919 18.1094H16.592ZM17.3826 16.7161C17.8005 16.7161 18.1337 16.976 18.1337 17.3947C18.1337 17.8471 17.8102 18.1478 17.3929 18.1478C16.9768 18.1478 16.6594 17.8646 16.6594 17.4418C16.6594 17.0328 16.9749 16.7161 17.3826 16.7161ZM17.4122 18.0612C17.7927 18.0612 17.8589 17.7246 17.8589 17.4379C17.8589 17.1505 17.7045 16.8026 17.3789 16.8026C17.0357 16.8026 16.9338 17.1093 16.9338 17.3726C16.9338 17.7246 17.0945 18.0612 17.4122 18.0612Z" fill="#211E1F"/>
<path d="M16.6509 17.4418C16.6517 17.0281 16.9709 16.7081 17.3827 16.7075V16.7244C16.9798 16.7244 16.6678 17.0371 16.6675 17.4418C16.6684 17.8599 16.9813 18.1388 17.393 18.1389C17.8062 18.1388 18.1251 17.8423 18.1258 17.3943C18.1254 16.9809 17.7972 16.725 17.3827 16.7244V16.7075C17.8039 16.7078 18.1415 16.9703 18.1424 17.3943C18.142 17.8515 17.8143 18.1553 17.393 18.1561C16.9737 18.1553 16.6517 17.8692 16.6509 17.4417V17.4418ZM16.9255 17.3727C16.9261 17.1082 17.0291 16.7937 17.3791 16.7937C17.7119 16.7945 17.8674 17.1491 17.8679 17.4379C17.8673 17.7247 17.8 18.0694 17.4126 18.0694V18.0527C17.7854 18.0522 17.8499 17.7247 17.8509 17.4379C17.8509 17.1529 17.6978 16.8115 17.3791 16.8111C17.0427 16.8115 16.9431 17.1107 16.9426 17.3727C16.9428 17.7229 17.102 18.0519 17.4126 18.0527V18.0694C17.087 18.069 16.9261 17.7267 16.9255 17.3726V17.3727ZM19.4551 17.7307L19.4591 17.7269V16.9895C19.4591 16.8281 19.3471 16.8047 19.2882 16.8047H19.2458V16.7455C19.3377 16.7455 19.4278 16.7533 19.5197 16.7533C19.6003 16.7533 19.6806 16.7455 19.7612 16.7455V16.8047H19.7316C19.6494 16.8047 19.5571 16.8203 19.5571 17.0543V17.9493C19.5571 18.018 19.559 18.0867 19.569 18.1477H19.4946L18.4846 17.0189V17.8291C18.4846 18.0003 18.5178 18.0591 18.6687 18.0591H18.7023V18.1183C18.6178 18.1183 18.5338 18.1106 18.4494 18.1106C18.3612 18.1106 18.2708 18.1183 18.1826 18.1183V18.0591H18.2102C18.3457 18.0591 18.3863 17.9669 18.3863 17.8097V16.9814C18.3863 16.8713 18.2966 16.8046 18.2081 16.8046H18.1825V16.7456C18.257 16.7456 18.3336 16.7534 18.4079 16.7534C18.4668 16.7534 18.5235 16.7456 18.5826 16.7456L19.4551 17.7307Z" fill="#211E1F"/>
<path d="M19.5689 18.1562L19.4878 18.1533L18.493 17.0411V17.8292C18.4951 18.0002 18.521 18.0486 18.6683 18.0503H18.7107V18.1267H18.7022C18.6172 18.1267 18.533 18.1187 18.4493 18.1187C18.3613 18.1187 18.2713 18.1267 18.1822 18.1267H18.1741V18.0503H18.21C18.3393 18.0499 18.3764 17.9665 18.378 17.8097V16.9814C18.3778 16.8767 18.2922 16.8131 18.2079 16.813H18.1741V16.7371H18.1822C18.2574 16.7371 18.3338 16.7447 18.4078 16.7447C18.466 16.7447 18.5226 16.7371 18.5889 16.74L19.4503 17.7129V16.9897C19.4498 16.8332 19.3454 16.8143 19.2879 16.813H19.2365V16.7372H19.2453C19.3376 16.7372 19.428 16.7447 19.5193 16.7447C19.5998 16.7447 19.6797 16.7372 19.761 16.7372H19.7694V16.813H19.7314C19.6507 16.8154 19.5673 16.8227 19.5656 17.0543V17.9492C19.5656 18.0179 19.5671 18.0865 19.5766 18.1467L19.5782 18.1562H19.5689ZM19.4945 18.139H19.5586C19.55 18.0799 19.5486 18.0145 19.5486 17.9491V17.0543C19.5486 16.8179 19.6474 16.7965 19.7314 16.7958H19.7526V16.7542C19.6753 16.7547 19.5978 16.7619 19.5194 16.7619C19.4302 16.7619 19.3424 16.7547 19.2537 16.7542V16.7958H19.2881C19.3489 16.7965 19.4671 16.8234 19.4671 16.9897L19.465 17.7328L19.4613 17.7368L19.455 17.7432L18.5824 16.7543C18.5246 16.7543 18.4674 16.7619 18.4078 16.7619C18.3357 16.7619 18.2621 16.7547 18.1907 16.7543V16.7959H18.208C18.3 16.7965 18.3948 16.8662 18.3948 16.9814V17.8097C18.3948 17.9669 18.351 18.0675 18.21 18.0681L18.1907 18.0679V18.1095C18.2758 18.1091 18.3631 18.102 18.4493 18.102C18.531 18.102 18.6122 18.1091 18.6937 18.1095V18.0681H18.6683C18.5145 18.0679 18.476 18.0002 18.476 17.8292V16.9967L19.4944 18.139H19.4945ZM19.4504 17.7269V17.7263L19.4488 17.7247L19.4504 17.7269ZM20.0761 17.8371C20.0569 17.9038 20.0331 17.9553 20.0331 17.9903C20.0331 18.0495 20.1157 18.0591 20.18 18.0591H20.2018V18.1183C20.1228 18.1136 20.0436 18.111 19.9645 18.1106C19.8936 18.1106 19.8234 18.1142 19.753 18.1184V18.0591H19.7642C19.841 18.0591 19.906 18.0139 19.935 17.9312L20.249 17.0288C20.2743 16.956 20.3098 16.8576 20.3213 16.7848C20.3835 16.7626 20.4433 16.7343 20.5 16.7003C20.5056 16.6983 20.5096 16.6963 20.5155 16.6963C20.5214 16.6963 20.525 16.6963 20.529 16.7024C20.535 16.7179 20.5411 16.7358 20.547 16.7515L20.9075 17.7801C20.931 17.8488 20.9544 17.9215 20.9802 17.9807C21.0038 18.0358 21.045 18.0591 21.1095 18.0591H21.1215V18.1184C21.0313 18.1136 20.941 18.111 20.8506 18.1107C20.7526 18.1112 20.6545 18.1138 20.5566 18.1184V18.0591H20.5783C20.6231 18.0591 20.7 18.0515 20.7 18.0023C20.7 17.9767 20.6822 17.9237 20.6603 17.8606L20.5842 17.6324H20.139L20.0761 17.8371V17.8371ZM20.3627 16.9659H20.3587L20.1762 17.5224H20.5431L20.3627 16.9659Z" fill="#211E1F"/>
<path d="M21.1205 18.1267C21.0323 18.1231 20.9442 18.1187 20.8505 18.1187C20.755 18.1187 20.6569 18.1231 20.5568 18.1267L20.5481 18.1272V18.0506H20.5778C20.6234 18.0506 20.6911 18.0399 20.6912 18.0022C20.6916 17.9798 20.674 17.9262 20.6521 17.8632L20.5776 17.6408H20.1448L20.0841 17.8395C20.0646 17.9069 20.0412 17.9586 20.0416 17.9903C20.0416 18.0386 20.115 18.0506 20.1799 18.0506H20.2098V18.1272L20.201 18.1267C20.1226 18.1231 20.0424 18.1187 19.9644 18.1187C19.8941 18.1187 19.8236 18.1231 19.7529 18.1267L19.7444 18.1272V18.0506H19.7641C19.8373 18.0503 19.8985 18.0082 19.927 17.9284L20.2408 17.0259C20.2658 16.953 20.3011 16.855 20.3185 16.7768C20.3801 16.7554 20.4589 16.7162 20.4969 16.6921C20.5021 16.6903 20.5073 16.6881 20.5153 16.6881C20.5197 16.6876 20.524 16.6885 20.5279 16.6905C20.5317 16.6925 20.5349 16.6956 20.5369 16.6994C20.5427 16.7149 20.5485 16.7327 20.5549 16.7487L20.9155 17.7772C20.9389 17.8462 20.9625 17.9188 20.9878 17.9774C21.0109 18.0295 21.0466 18.05 21.1091 18.0506H21.1295V18.1272L21.1205 18.1267ZM20.5649 18.1094C20.6618 18.1057 20.7573 18.1019 20.8505 18.1019C20.9417 18.1019 21.0273 18.1057 21.1127 18.1091L21.1124 18.068H21.1092C21.0428 18.0682 20.9965 18.042 20.9721 17.984C20.9463 17.9243 20.9229 17.8514 20.8995 17.7827L20.5387 16.7542C20.5328 16.7385 20.5269 16.7206 20.5221 16.7073C20.5205 16.7048 20.5206 16.7048 20.5191 16.7048H20.5154C20.5113 16.7048 20.5091 16.7062 20.5044 16.7075C20.4662 16.7317 20.3876 16.7709 20.3296 16.7861C20.3174 16.8605 20.2818 16.9586 20.2565 17.0315L19.9426 17.9342C19.9129 18.0194 19.8443 18.0682 19.7641 18.068H19.7613V18.1091C19.8287 18.1057 19.8961 18.1019 19.9644 18.1019C20.0404 18.1019 20.1177 18.1057 20.1932 18.1091V18.068H20.1798C20.1161 18.0672 20.0266 18.0602 20.0243 17.9903C20.0247 17.9513 20.0491 17.9013 20.068 17.8346L20.076 17.8372L20.068 17.8343L20.1325 17.6241H20.5898L20.6684 17.8577C20.69 17.9211 20.7078 17.9733 20.7078 18.0022C20.7049 18.0626 20.6227 18.0668 20.5778 18.068H20.5649L20.5649 18.1094ZM20.1644 17.5306L20.3524 16.9572H20.3626H20.3687L20.5541 17.5306H20.1644ZM20.1879 17.5138H20.5308L20.3603 16.987L20.1879 17.5138ZM20.3545 16.9682L20.3584 16.9667L20.3544 16.9682H20.3545ZM21.6154 17.9255C21.6154 18.0042 21.6698 18.0277 21.7326 18.0357C21.813 18.0417 21.9013 18.0417 21.9918 18.0317C22.0739 18.0218 22.1446 17.9746 22.1797 17.9255C22.2109 17.8822 22.2286 17.8271 22.2405 17.7839H22.2973C22.2758 17.8959 22.2483 18.0063 22.2247 18.1183C22.0525 18.1183 21.8797 18.1106 21.7073 18.1106C21.5345 18.1106 21.3623 18.1183 21.1897 18.1183V18.0591H21.2167C21.2877 18.0591 21.3644 18.0494 21.3644 17.9274V16.9168C21.3644 16.8143 21.2876 16.8046 21.2167 16.8046H21.1897V16.7456C21.2933 16.7456 21.3955 16.7534 21.4992 16.7534C21.5995 16.7534 21.6974 16.7456 21.7975 16.7456V16.8046H21.7481C21.6739 16.8046 21.6154 16.8068 21.6154 16.9107V17.9255Z" fill="#211E1F"/>
<path d="M22.2248 18.1267C22.052 18.1267 21.8795 18.1188 21.7075 18.1188C21.5348 18.1188 21.3623 18.1267 21.1895 18.1267H21.1812V18.0506H21.2168C21.288 18.049 21.3551 18.0441 21.3559 17.9274V16.9165C21.3551 16.8209 21.2883 16.8143 21.2168 16.813H21.1812V16.7371H21.1895C21.2937 16.7371 21.3959 16.7446 21.4994 16.7446C21.599 16.7446 21.6968 16.7371 21.7976 16.7371H21.8056V16.813H21.7484C21.6724 16.8151 21.6251 16.8116 21.6236 16.9107V17.9256C21.6241 17.9988 21.672 18.0186 21.7332 18.0272C21.7678 18.0296 21.8041 18.0311 21.842 18.0311C21.89 18.0311 21.9398 18.0288 21.9904 18.0234C22.0704 18.0139 22.1392 17.9677 22.1728 17.9208C22.2031 17.8788 22.2204 17.8248 22.2321 17.7819L22.234 17.7754H22.3077L22.306 17.7858C22.2838 17.8982 22.2569 18.0082 22.2332 18.12L22.2316 18.1267L22.2248 18.1267ZM22.2177 18.1095C22.2404 18.0029 22.2661 17.8986 22.2872 17.7922H22.2469C22.2347 17.835 22.2173 17.8878 22.1864 17.9307C22.1499 17.9818 22.0772 18.0298 21.9923 18.0403C21.9409 18.0455 21.89 18.0482 21.8419 18.0482C21.804 18.0482 21.7672 18.0465 21.7316 18.044C21.6679 18.037 21.606 18.0096 21.6063 17.9256V16.9106C21.6063 16.8014 21.6752 16.7958 21.7484 16.7958H21.7889V16.7541C21.6923 16.7547 21.5971 16.7619 21.4994 16.7619C21.3979 16.7619 21.2986 16.7547 21.198 16.7541V16.7958H21.2168C21.2868 16.7958 21.3724 16.8081 21.3724 16.9163V17.9274C21.3724 18.0546 21.2872 18.0679 21.2168 18.0679H21.198V18.1094C21.3676 18.1093 21.5371 18.1019 21.7075 18.1019C21.8779 18.1019 22.048 18.1093 22.2177 18.1094V18.1095ZM22.2736 16.6897C22.3917 16.6897 22.48 16.7808 22.48 16.8974C22.48 17.0137 22.3917 17.1038 22.2736 17.1038C22.1554 17.1038 22.0671 17.0137 22.0671 16.8974C22.0671 16.7808 22.1554 16.6897 22.2736 16.6897ZM22.2736 17.0654C22.3659 17.0654 22.4369 16.9862 22.4369 16.8974C22.4369 16.8082 22.367 16.7284 22.2736 16.7284C22.1808 16.7284 22.1097 16.8082 22.1097 16.8974C22.1097 16.9862 22.1808 17.0654 22.2736 17.0654ZM22.1708 17.0066V16.9963C22.1962 16.9928 22.2008 16.9936 22.2008 16.9778V16.8246C22.2008 16.803 22.1984 16.7956 22.1717 16.7967V16.7862H22.2773C22.3138 16.7862 22.3472 16.8035 22.3472 16.8412C22.3472 16.872 22.3268 16.8948 22.2984 16.9036L22.3322 16.951C22.348 16.9726 22.3659 16.9928 22.3777 16.9998V17.0066H22.3375C22.3182 17.0066 22.3013 16.9658 22.2632 16.9111H22.2404V16.9799C22.2404 16.9935 22.2452 16.9927 22.2706 16.9963V17.0066H22.1708ZM22.2404 16.8974H22.2648C22.2914 16.8974 22.3039 16.8772 22.3039 16.8446C22.3039 16.8116 22.2846 16.8 22.2634 16.8H22.2404V16.8974Z" fill="#211E1F"/>
<path d="M15.021 13.1962C18.0005 13.2105 20.72 10.7532 20.72 7.76385C20.72 4.49481 18.0005 2.23513 15.021 2.23625H12.4568C9.44172 2.23513 6.95996 4.49545 6.95996 7.76385C6.95996 10.7538 9.44172 13.2106 12.4568 13.1962H15.021Z" fill="#0079BE"/>
<path d="M12.4691 2.68921C9.71391 2.69009 7.48135 4.93537 7.48071 7.70649C7.48135 10.477 9.71391 12.7221 12.4691 12.723C15.225 12.7222 17.458 10.477 17.4583 7.70649C17.4579 4.93529 15.225 2.69009 12.4691 2.68921ZM9.30711 7.70649C9.30967 6.35233 10.1509 5.19769 11.337 4.73881V10.6734C10.1509 10.2148 9.30967 9.06073 9.30711 7.70649ZM13.6007 10.6747V4.73865C14.7874 5.19641 15.6298 6.35177 15.632 7.70657C15.6321 8.34841 15.4381 8.97528 15.0757 9.50497C14.7132 10.0347 14.1991 10.4424 13.6008 10.6748L13.6007 10.6747Z" fill="white"/>
<path d="M15.021 13.1962C18.0005 13.2105 20.72 10.7532 20.72 7.76385C20.72 4.49481 18.0005 2.23513 15.021 2.23625H12.4568C9.44172 2.23513 6.95996 4.49545 6.95996 7.76385C6.95996 10.7538 9.44172 13.2106 12.4568 13.1962H15.021Z" fill="#0079BE"/>
<path d="M12.4691 2.68921C9.71391 2.69009 7.48135 4.93537 7.48071 7.70649C7.48135 10.477 9.71391 12.7221 12.4691 12.723C15.225 12.7222 17.458 10.477 17.4583 7.70649C17.4579 4.93529 15.225 2.69009 12.4691 2.68921ZM9.30711 7.70649C9.30967 6.35233 10.1509 5.19769 11.337 4.73881V10.6734C10.1509 10.2148 9.30967 9.06073 9.30711 7.70649ZM13.6007 10.6747V4.73865C14.7874 5.19641 15.6298 6.35177 15.632 7.70657C15.6321 8.34841 15.4381 8.97528 15.0757 9.50497C14.7132 10.0347 14.1991 10.4424 13.6008 10.6748L13.6007 10.6747Z" fill="white"/>
<path fill-rule="evenodd" clip-rule="evenodd" d="M2.4 0.15625H25.6C26.928 0.15625 28 1.22825 28 2.55625V17.7563C28 19.0842 26.928 20.1562 25.6 20.1562H2.4C1.072 20.1562 0 19.0842 0 17.7563V2.55625C0 1.22825 1.072 0.15625 2.4 0.15625ZM27.2 2.55625C27.2 1.67625 26.48 0.95625 25.6 0.95625H2.4C1.52 0.95625 0.8 1.67625 0.8 2.55625V17.7563C0.8 18.6362 1.52 19.3562 2.4 19.3562H25.6C26.48 19.3562 27.2 18.6362 27.2 17.7563V2.55625Z" fill="#E7E7E7"/>
</g>
<defs>
<clipPath id="clip0_0_649">
<rect width="28" height="20" fill="white" transform="translate(0 0.15625)"/>
</clipPath>
</defs>
</svg>
