<svg width="30" height="21" viewBox="0 0 30 21" fill="none" xmlns="http://www.w3.org/2000/svg">
<g clip-path="url(#clip0_0_615)">
<path d="M26.1931 20.1562H2.90873C1.5759 20.1562 0.5 19.0842 0.5 17.7563V2.55625C0.5 1.22825 1.5759 0.15625 2.90873 0.15625H26.1931C27.5259 0.15625 28.6018 1.22825 28.6018 2.55625V17.7563C28.6018 19.0842 27.5259 20.1562 26.1931 20.1562Z" fill="#F8F8F8"/>
<path d="M26.1931 0.95625C27.0763 0.95625 27.7989 1.67625 27.7989 2.55625V17.7563C27.7989 18.6362 27.0763 19.3563 26.1931 19.3563H2.90873C2.02553 19.3563 1.30291 18.6362 1.30291 17.7563V2.55625C1.30291 1.67625 2.02553 0.95625 2.90873 0.95625H26.1931ZM26.1931 0.15625H2.90873C1.5759 0.15625 0.5 1.22825 0.5 2.55625V17.7563C0.5 19.0842 1.5759 20.1562 2.90873 20.1562H26.1931C27.5259 20.1562 28.6018 19.0842 28.6018 17.7563V2.55625C28.6018 1.22825 27.5259 0.15625 26.1931 0.15625Z" fill="#E7E7E7"/>
<path d="M22.84 10.1574C22.84 12.9866 20.5469 15.2713 17.7172 15.2713C14.8875 15.2713 12.5847 12.9866 12.5847 10.1574C12.5847 7.32825 14.8778 5.03379 17.7075 5.03379C20.5469 5.03379 22.84 7.32825 22.84 10.1574Z" fill="#F79F1A"/>
<path d="M16.517 10.1574C16.517 12.9866 14.2239 15.2713 11.3942 15.2713C8.56452 15.2713 6.27148 12.9769 6.27148 10.1574C6.27148 7.33797 8.56452 5.03379 11.3942 5.03379C14.2239 5.03379 16.517 7.32825 16.517 10.1574Z" fill="#EA001B"/>
<path d="M14.546 6.13241C13.3458 7.06575 12.5847 8.52409 12.5847 10.1574C12.5847 11.7908 13.3556 13.2491 14.546 14.1824C15.7462 13.2491 16.5073 11.7908 16.5073 10.1574C16.5073 8.52409 15.7462 7.06575 14.546 6.13241Z" fill="#FF5F01"/>
</g>
<defs>
<clipPath id="clip0_0_615">
<rect width="29" height="20" fill="white" transform="translate(0.5 0.15625)"/>
</clipPath>
</defs>
</svg>
