<svg width="30" height="21" viewBox="0 0 30 21" fill="none" xmlns="http://www.w3.org/2000/svg">
<g clip-path="url(#clip0_0_602)">
<path d="M26.1931 20.1562H2.90873C1.5759 20.1562 0.5 19.0842 0.5 17.7563V2.55625C0.5 1.22825 1.5759 0.15625 2.90873 0.15625H26.1931C27.5259 0.15625 28.6018 1.22825 28.6018 2.55625V17.7563C28.6018 19.0842 27.5259 20.1562 26.1931 20.1562Z" fill="#F8F8F8"/>
<path d="M26.1931 0.95625C27.0763 0.95625 27.7989 1.67625 27.7989 2.55625V17.7563C27.7989 18.6362 27.0763 19.3563 26.1931 19.3563H2.90873C2.02553 19.3563 1.30291 18.6362 1.30291 17.7563V2.55625C1.30291 1.67625 2.02553 0.95625 2.90873 0.95625H26.1931ZM26.1931 0.15625H2.90873C1.5759 0.15625 0.5 1.22825 0.5 2.55625V17.7563C0.5 19.0842 1.5759 20.1562 2.90873 20.1562H26.1931C27.5259 20.1562 28.6018 19.0842 28.6018 17.7563V2.55625C28.6018 1.22825 27.5259 0.15625 26.1931 0.15625Z" fill="#E7E7E7"/>
<path d="M12.2948 6.72425L10.8175 13.5563H12.5999L14.0773 6.72425H12.2948ZM23.7764 6.72425H22.2589C21.9217 6.72425 21.6246 6.92425 21.5042 7.22025L18.8225 13.5563H20.6932L21.0626 12.5323H23.3509L23.5677 13.5563H25.2217L23.7764 6.72425ZM21.5845 11.1323L22.5159 8.57225L23.0538 11.1323H21.5845ZM9.65325 6.72425L7.79853 11.3723L7.0438 7.42025C6.94745 6.97225 6.61022 6.71625 6.2168 6.71625H3.19786L3.15771 6.91625C3.78398 7.05225 4.48251 7.26825 4.91609 7.49225C5.17302 7.64425 5.25331 7.76425 5.3336 8.10025L6.75475 13.5643H8.63355L11.5321 6.73225H9.65325V6.72425ZM16.4218 8.62825C16.4218 8.38825 16.6626 8.11625 17.1765 8.06025C17.4334 8.03625 18.14 8.00425 18.9349 8.37225L19.248 6.91625C18.8144 6.76425 18.2604 6.62025 17.586 6.62025C15.8276 6.62025 14.5831 7.54825 14.5671 8.88425C14.551 9.86825 15.4583 10.4203 16.1247 10.7483C16.8152 11.0843 17.0561 11.3003 17.048 11.5963C17.048 12.0522 16.494 12.2603 15.9802 12.2683C15.0889 12.2843 14.559 12.0283 14.1495 11.8363L13.8284 13.3323C14.2459 13.5243 15.0167 13.6843 15.8196 13.7003C17.6984 13.7003 18.9188 12.7803 18.9349 11.3643C18.9188 9.53225 16.4057 9.42025 16.4218 8.62825Z" fill="#0F2496"/>
</g>
<defs>
<clipPath id="clip0_0_602">
<rect width="29" height="20" fill="white" transform="translate(0.5 0.15625)"/>
</clipPath>
</defs>
</svg>
